<?xml version="1.0" standalone="no"?>
<!DOCTYPE svg PUBLIC "-//W3C//DTD SVG 1.1//EN" "http://www.w3.org/Graphics/SVG/1.1/DTD/svg11.dtd" >
<svg xmlns="http://www.w3.org/2000/svg" xmlns:xlink="http://www.w3.org/1999/xlink" version="1.1">
<metadata>
Created by FontForge 20170731 at Tue Aug 27 19:58:03 1929
 By Aleksey,,,
Copyright (c) 1991 Digital Typeface Corp.
</metadata>
<defs>
<font id="EurostileExtended-Black" horiz-adv-x="500" >
  <font-face 
    font-family="Eurostile Extended"
    font-weight="700"
    font-stretch="normal"
    units-per-em="1000"
    panose-1="0 0 0 0 0 0 0 0 0 0"
    ascent="800"
    descent="-200"
    x-height="467"
    cap-height="667"
    bbox="-215 -258 1540 922"
    underline-thickness="110"
    underline-position="-269"
    unicode-range="U+0020-F002"
  />
<missing-glyph 
d="M31 0v750h438v-750h-438zM438 31v688h-376v-688h376z" />
    <glyph glyph-name=".notdef" 
d="M31 0v750h438v-750h-438zM438 31v688h-376v-688h376z" />
    <glyph glyph-name=".null" horiz-adv-x="0" 
 />
    <glyph glyph-name="nonmarkingreturn" horiz-adv-x="250" 
 />
    <glyph glyph-name="space" unicode=" " horiz-adv-x="250" 
 />
    <glyph glyph-name="exclam" unicode="!" horiz-adv-x="327" 
d="M65 0v186h199v-186h-199zM78 273l-9 394h197l-11 -394h-177z" />
    <glyph glyph-name="quotedbl" unicode="&#x22;" horiz-adv-x="483" 
d="M17 666h206l-36 -267h-134zM259 666h206l-37 -267h-134z" />
    <glyph glyph-name="numbersign" unicode="#" horiz-adv-x="661" 
d="M331 43l23 161h-92l-23 -161h-85l23 161h-99l12 83h98l13 87h-99l11 83h99l21 147h85l-21 -147h93l20 147h86l-21 -147h108l-12 -83h-108l-12 -87h108l-12 -83h-108l-22 -161h-86zM274 287h92l12 87h-92z" />
    <glyph glyph-name="dollar" unicode="$" horiz-adv-x="953" 
d="M555 410l133 -4q125 0 178.5 -35.5t53.5 -154.5q0 -71 -21.5 -118t-72 -67t-112.5 -26q-24 0 -72.5 -2.5t-64.5 -2.5h-53v-80h-101v80l-28 1l-111 3h-12q-46 0 -73 4q-34 3 -82 21.5t-65.5 61t-17.5 120.5v20h168q0 -60 24.5 -74.5t87.5 -14.5l109 -1v140l-19 1l-149 2
q-112 0 -162 42.5t-50 151.5q0 108 58 148t170 40h26l113 1h13v54h101v-54l111 -1q58 0 131 -7q73 0 106 -50q29 -43 29 -139h-169q0 38 -20 48.5t-59 10.5l-129 1v-120h31zM219 480q0 -35 15.5 -48.5t52.5 -13.5l136 -3v117h-134q-42 0 -56 -11.5t-14 -40.5zM749 210
q0 41 -24 54.5t-71 13.5l-130 3v-140h149q39 0 57.5 15.5t18.5 53.5z" />
    <glyph glyph-name="percent" unicode="%" horiz-adv-x="1086" 
d="M304 669q99 0 133 -29t34 -127v-30q0 -90 -26 -120.5t-137 -30.5l-113 -1q-87 0 -121 28q-32 29 -32 115v27q0 100 26.5 133t123.5 33zM258 417q74 0 91 11t17 72q0 52 -14 69q-12 18 -62 18l-65 -1q-29 0 -38 -2q-12 0 -21 -8q-9 -6 -15 -21l-4 -43v-12q0 -51 11 -67
t59 -16h41zM316 0h-92l555 667h92zM886 336q99 0 133 -31t34 -125v-34q0 -49 -8 -80.5t-29 -44t-48 -17.5t-50 -5.5t-36 -0.5l-99 -1q-85 0 -122 24t-37 120v27q0 100 26.5 133t123.5 33zM840 83l46 2q42 0 52 16.5t10 60.5v29q0 19 -3.5 31.5t-14.5 19t-24 9.5t-34 3
l-65 -1q-29 0 -38 -2q-12 0 -21 -8q-9 -6 -15 -21l-4 -43v-12q0 -52 10.5 -67.5t60.5 -15.5z" />
    <glyph glyph-name="ampersand" unicode="&#x26;" horiz-adv-x="1026" 
d="M861 191l149 -78l-60 -120l-140 69q-40 -32 -84.5 -46.5t-98.5 -14.5l-140 -5l-172 3q-118 0 -186 37.5t-68 146.5q0 104 27 143q27 35 126 49q-47 26 -62 54q-13 29 -13 89q0 77 39.5 112.5t117.5 35.5l161 4l168 -4q115 0 150 -45.5t35 -167.5h-174l1 11q0 21 -5 35
t-14.5 19t-23.5 9l-21 2l-137 2h-32h-13.5t-26.5 -3.5t-31 -12.5t-11 -25q0 -27 32 -44l43 -22l303 -155l4 41v28l-4 18h169v-44v-28q-2 -15 -2 -20q0 -23 -6 -73zM243 223q0 -47 24 -67q25 -17 76 -17l90 -3l228 1l-341 171l-21 3q-29 0 -44 -27q-12 -26 -12 -61z" />
    <glyph glyph-name="quotesingle" unicode="'" horiz-adv-x="247" 
d="M17 666h212l-36 -267h-140z" />
    <glyph glyph-name="parenleft" unicode="(" horiz-adv-x="424" 
d="M388 528q-82 0 -101.5 -19t-19.5 -101l-1 -246l1 -63l-1 -88q0 -44 22.5 -61.5t69.5 -17.5l47 2v-154l-79 1q-124 0 -183.5 39.5t-59.5 157.5l-2 136v175l4 210q0 95 62.5 135t163.5 40l94 -1v-145h-17z" />
    <glyph glyph-name="parenright" unicode=")" horiz-adv-x="424" 
d="M344 381l1 -74l-1 -102l-3 -227q0 -117 -58.5 -157t-183.5 -40l-79 -1v154l42 -1q50 0 73.5 15t23.5 63l-1 397q0 84 -18.5 102t-102.5 18h-17v145l96 1q147 0 187.5 -67.5t40.5 -225.5z" />
    <glyph glyph-name="asterisk" unicode="*" horiz-adv-x="953" 
d="M527 667v-158l151 48l31 -95l-151 -49l93 -128l-81 -59l-93 128l-93 -128l-82 59l94 128l-151 49l31 96l151 -49v158h100z" />
    <glyph glyph-name="plus" unicode="+" 
d="M205 614h90v-203h202v-87h-202v-203h-90v203h-201v87h201v203z" />
    <glyph glyph-name="comma" unicode="," horiz-adv-x="322" 
d="M93 -178h-15l-44 3v104l21 -2q34 0 48.5 19t14.5 54h-56v186h201v-186q0 -96 -36.5 -137t-133.5 -41z" />
    <glyph glyph-name="hyphen" unicode="-" horiz-adv-x="346" 
d="M10 156v170h326v-170h-326z" />
    <glyph glyph-name="period" unicode="." horiz-adv-x="332" 
d="M66 0v186h199v-186h-199z" />
    <glyph glyph-name="slash" unicode="/" horiz-adv-x="780" 
d="M23 -213h-145l727 880h141z" />
    <glyph glyph-name="zero" unicode="0" horiz-adv-x="953" 
d="M479 670l78 1h45t35 -2q23 0 79 -9q53 -6 95.5 -32t56.5 -70.5t20 -91.5t6 -130q0 -145 -15 -209.5t-77 -96.5t-203 -32l-210 -2q-199 0 -263 54t-64 249v37q0 197 51.5 264.5t237.5 67.5zM481 160h55q97 0 129.5 26.5t32.5 133.5v15v14v12q0 41 -6 74.5t-26.5 49.5
t-47.5 22l-56 5l-34 1h-94q-119 0 -147.5 -28.5t-28.5 -137.5v-13q0 -105 22.5 -138.5t121.5 -33.5z" />
    <glyph glyph-name="one" unicode="1" horiz-adv-x="953" 
d="M466 0v510l-242 -166l-90 136l285 187h246v-667h-199z" />
    <glyph glyph-name="two" unicode="2" horiz-adv-x="953" 
d="M87 0v170q0 90 33 132t122 55l350 28q46 4 67 18q21 12 21 50l-1 14q0 39 -19 52.5t-73 13.5h-104l-118 -2q-28 0 -48.5 -6.5t-29.5 -19.5t-14 -28l-2 -30v-23h-184l-1 47q0 131 53 163t193 32l224 4l112 -2q112 0 156.5 -43t44.5 -156q0 -126 -42.5 -175t-168.5 -49
l-165 -11l-140 -10q-39 0 -61 -9.5t-22 -50.5v-29h599v-135h-782z" />
    <glyph glyph-name="three" unicode="3" horiz-adv-x="953" 
d="M532 398h35q52 0 78 9t26 49q0 45 -18 60t-79 15h-9l-111 3l-96 -3q-44 0 -66.5 -16t-22.5 -57l1 -18h-189q0 121 38 165.5t121 53.5l121 9l100 2h27l155 -3q114 0 165.5 -38.5t51.5 -148.5q0 -34 -3.5 -54t-17 -41.5t-51.5 -34.5l-62 -17q86 -9 118.5 -39t32.5 -116
q0 -88 -49.5 -134.5t-211.5 -46.5h-158l-128 1q-131 0 -192 36t-61 161l2 36h183q0 -52 18 -74t70 -22l116 -1h112l23 -1q39 0 62.5 12.5t23.5 51.5q0 42 -19 57q-10 8 -24 12t-38 4l-49 -1h-160v129h135z" />
    <glyph glyph-name="four" unicode="4" horiz-adv-x="953" 
d="M892 268v-135h-108v-133h-186v133h-531v233l482 301h235v-399h108zM206 268h392v249z" />
    <glyph glyph-name="five" unicode="5" horiz-adv-x="953" 
d="M278 532v-136q23 29 56 41t76 12l62 1h62l84 -1q37 0 53 -1t76.5 -7.5t95 -53t34.5 -147.5q0 -125 -48 -183.5t-175 -58.5l-75 -1h-76l-191 5q-125 0 -178 39.5t-53 164.5h186q0 -54 42 -63q23 -3 42.5 -5t40.5 -2l97 -2l85 1q63 0 88.5 16.5t25.5 73.5q0 50 -20.5 71
t-72.5 21l-109 2h-110h-20.5t-18.5 -2q-16 0 -35 -8q-19 -6 -24 -33h-171l9 391h732v-135h-570z" />
    <glyph glyph-name="six" unicode="6" horiz-adv-x="953" 
d="M575 532l-59 1l-116 -2q-46 0 -67 -3.5t-35 -20.5q-10 -14 -17 -36l-3 -42v-24v-59q23 48 71 60.5t121 12.5l139 1q61 0 108.5 -6t86.5 -23.5t54 -63.5q13 -47 13 -101q0 -139 -55 -183t-205 -44l-208 -3q-53 0 -93.5 3t-69.5 10q-54 12 -92.5 42t-49.5 81q-4 23 -7 59.5
t-3 75.5l-1 144v39q0 21 6.5 77t70.5 96.5t160 40.5l76 5l84 1q31 0 76.5 -1t59.5 -1q53 0 117 -10q67 -7 93.5 -51.5t26.5 -126.5h-184q-5 32 -33.5 42t-64.5 10zM574 135q56 0 81.5 14.5t25.5 64.5q0 37 -22 52.5t-61 15.5h-97l-128 -2q-49 0 -72.5 -12.5t-23.5 -57.5
q0 -49 27 -64q29 -13 85 -13z" />
    <glyph glyph-name="seven" unicode="7" horiz-adv-x="953" 
d="M433 0h-240l435 503h-549v164h795v-152z" />
    <glyph glyph-name="eight" unicode="8" horiz-adv-x="953" 
d="M815 32q-35 -23 -70 -28l-68 -5l-67 -1l-136 -1l-134 1q-128 0 -193.5 30.5t-65.5 144.5q0 80 28 110t108 56q-75 21 -103 52q-26 31 -26 110q0 92 50 129.5t145 37.5l122 4l154 -3h57q153 0 202.5 -44t49.5 -132q0 -73 -28 -104t-101 -52q73 -20 102.5 -49t29.5 -95
q0 -62 -9.5 -99t-46.5 -62zM589 405q38 0 64 15t26 51q0 40 -28.5 53t-73.5 13l-194 1q-46 0 -75.5 -12t-29.5 -49q0 -38 27 -56q27 -15 71 -15zM420 133l147 1q51 0 83 12.5t32 55.5q0 45 -28.5 60.5t-77.5 15.5h-204q-50 0 -75 -14q-27 -12 -27 -57q0 -16 1.5 -23.5t8 -18
t26.5 -19.5q19 -5 53 -10z" />
    <glyph glyph-name="nine" unicode="9" horiz-adv-x="953" 
d="M361 135l102 -2l114 1q56 0 78.5 19.5t22.5 69.5v86q-22 -34 -61 -46q-17 -5 -40 -8t-51 -3l-160 -2q-145 0 -209.5 39.5t-64.5 176.5q0 118 58.5 159.5t183.5 41.5l224 3h44t38 -2q29 0 79.5 -9.5t88 -37t49.5 -75.5q5 -23 9 -46t4 -41l3 -92v-51q0 -187 -47 -252
t-227 -65l-136 -3l-201 7q-46 0 -78.5 10t-59.5 30q-44 33 -44 119l1 26h188q0 -33 27 -43t65 -10zM486 387l91 1q48 0 77.5 12t29.5 54q0 39 -17.5 57t-58.5 18l-45 2l-103 2l-78 -1q-60 0 -80.5 -17.5t-20.5 -50.5q0 -51 27 -65q28 -11 91 -11z" />
    <glyph glyph-name="colon" unicode=":" horiz-adv-x="332" 
d="M66 281v186h199v-186h-199zM66 0v186h199v-186h-199z" />
    <glyph glyph-name="semicolon" unicode=";" horiz-adv-x="322" 
d="M64 281v186h199v-186h-199zM93 -178h-15l-44 3v104l21 -2q34 0 48.5 19t14.5 54h-56v186h201v-186q0 -96 -36.5 -137t-133.5 -41z" />
    <glyph glyph-name="less" unicode="&#x3c;" 
d="M233 338l232 -132l1 -187l-433 240v158l433 240v-188z" />
    <glyph glyph-name="equal" unicode="=" 
d="M497 403h-494v84h494v-84zM497 248h-494v84h494v-84z" />
    <glyph glyph-name="greater" unicode="&#x3e;" 
d="M267 338l-232 132l-1 187l433 -240v-158l-433 -240v188z" />
    <glyph glyph-name="question" unicode="?" horiz-adv-x="796" 
d="M239 0v186h199v-186h-199zM467 418q35 5 57 18.5t22 45.5t-27 47t-63 15l-83 2l-71 -2q-45 0 -67.5 -17t-22.5 -59q0 -23 2 -30h-175q0 128 39 179t159 51l137 5q25 0 53 -0.5t58 -1.5q38 0 102 -9.5t96 -53.5t32 -123v-15q0 -46 -6 -76q-4 -27 -29 -55t-139 -49
t-117 -44l1 -11h-172q0 117 37.5 138.5t176.5 44.5z" />
    <glyph glyph-name="at" unicode="@" horiz-adv-x="1105" 
d="M927 -15l-29 -2l-51 -1l-468 -2l-160 4q-102 0 -129.5 48.5t-27.5 161.5l-1 135l1 129q0 114 20 166.5t109 52.5l129 5l223 1h100l251 -8q102 0 127 -58.5t25 -181.5v-110l-1 -46q0 -19 -5.5 -47.5t-21 -49.5t-44.5 -27l-63 -7l-62 -2q-58 0 -93 7.5t-47 31.5
q-10 25 -10 54q-16 -55 -67 -72t-125 -17q-56 0 -96.5 6t-69.5 28q-29 20 -38 52q-3 17 -5 35t-2 42v18q0 56 3 78t17.5 52.5t66.5 42.5q24 5 54.5 8t67.5 3h32q59 0 100 -11t62 -53v61h110v-211q0 -31 10.5 -47.5t39.5 -16.5h9q36 0 46.5 21t10.5 59l2 127v12
q0 48 -5.5 75.5t-20 36t-35.5 12.5l-50 5l-32 1l-100 2l-126 1l-169 -1l-109 -1q-61 0 -79 -28q-8 -14 -12 -35t-4 -54v-35l-4 -104l5 -159q0 -44 16 -67q12 -18 47 -24l60 -6l58 -1l199 -1l285 1q31 0 52 7t28 31l113 -21q-12 -47 -40 -74q-26 -23 -77 -32zM566 232
q74 0 102.5 19.5t28.5 86.5q0 64 -25 83t-98 19h-37h-25t-35 -3.5t-37.5 -15.5t-17 -25t-5.5 -22t-1 -32v-7q0 -57 20 -79.5t76 -22.5z" />
    <glyph glyph-name="A" unicode="A" horiz-adv-x="1077" 
d="M260 0h-226l372 667h274l364 -667h-224l-63 121h-431zM397 259h286l-143 264z" />
    <glyph glyph-name="B" unicode="B" horiz-adv-x="1025" 
d="M720 667q100 0 153 -38t53 -134q0 -45 -8 -72q-6 -28 -27 -46q-16 -15 -36 -23l-46 -14q82 -12 112.5 -40.5t30.5 -107.5q0 -110 -54 -151t-168 -41h-643v667h633zM721 465q0 34 -19.5 45t-57.5 11h-354v-116h350q41 0 61 11t20 49zM748 216q0 27 -17.5 42t-68.5 15h-372
v-122h369q35 0 62 7.5t27 57.5z" />
    <glyph glyph-name="C" unicode="C" horiz-adv-x="999" 
d="M928 225q0 -137 -50.5 -183t-199.5 -46l-155 -3l-126 2q-201 0 -258.5 52.5t-57.5 163.5l-6 140q0 163 48 240t196 77l190 5q29 0 75 -1t62 -1q53 0 130 -8t110.5 -68t33.5 -163h-197q0 45 -22.5 61t-71.5 16l-57 1h-56l-103 -1q-91 0 -113 -34q-20 -34 -20 -141
q0 -108 24 -142t128 -34l79 -2l104 1q61 0 87 17t26 80h199z" />
    <glyph glyph-name="D" unicode="D" horiz-adv-x="1053" 
d="M675 667q180 0 242.5 -60t62.5 -240v-38v-21v-18v-31v-25q-2 -7 -2 -10q0 -23 -10 -79t-69.5 -100.5t-148.5 -44.5h-663v667h588zM775 331v6q0 98 -22 132t-118 34h-345v-340h342q93 0 118 35.5t25 132.5z" />
    <glyph glyph-name="E" unicode="E" horiz-adv-x="894" 
d="M831 667v-152h-541v-114h505v-132h-505v-118h541v-151h-744v667h744z" />
    <glyph glyph-name="F" unicode="F" horiz-adv-x="831" 
d="M795 667v-152h-505v-114h505v-132h-505v-269h-203v667h708z" />
    <glyph glyph-name="G" unicode="G" horiz-adv-x="1017" 
d="M944 376l1 -140q0 -124 -42.5 -183t-165.5 -59l-106 -1l-121 1l-105 1q-114 0 -181 15t-107.5 68.5t-40.5 162.5l-2 84q0 195 48 270t226 75l152 3l56 1l136 -3q132 0 191.5 -45.5t59.5 -175.5v-12h-199q0 24 -6.5 41t-23 22.5t-40.5 9.5l-50 2l-235 1q-72 0 -91 -35.5
t-19 -117.5v-62q0 -69 18 -102t55 -39l54 -5l48 -1l181 -1q52 0 81 17t29 64l-1 19h-257v125h457z" />
    <glyph glyph-name="H" unicode="H" horiz-adv-x="1040" 
d="M953 667v-667h-204v257h-460v-257h-203v667h203v-244h460v244h204z" />
    <glyph glyph-name="I" unicode="I" horiz-adv-x="377" 
d="M87 0v667h203v-667h-203z" />
    <glyph glyph-name="J" unicode="J" horiz-adv-x="807" 
d="M720 272q0 -120 -29 -183t-103 -78q-29 -5 -66.5 -10t-58.5 -5l-101 -2q-131 0 -194.5 12t-99 67t-35.5 179l1 33h195l-1 -44q0 -53 31.5 -68.5t91.5 -15.5h54q47 0 79 12t32 52l1 51v395h203v-395z" />
    <glyph glyph-name="K" unicode="K" horiz-adv-x="1017" 
d="M394 416l275 251h280l-382 -330l424 -337h-298l-299 254h-104v-254h-203v667h203v-251h104z" />
    <glyph glyph-name="L" unicode="L" horiz-adv-x="777" 
d="M751 167v-167h-664v667h203v-500h461z" />
    <glyph glyph-name="M" unicode="M" horiz-adv-x="1304" 
d="M1025 0v508l-294 -508h-163l-291 508v-508h-191v667h323l245 -442l242 442h321v-667h-192z" />
    <glyph glyph-name="N" unicode="N" horiz-adv-x="1089" 
d="M679 0l-402 501v-501h-191v667h323l402 -500v500h191v-667h-323z" />
    <glyph glyph-name="O" unicode="O" horiz-adv-x="1061" 
d="M517 674l162 -1q178 0 243.5 -59t65.5 -236v-32q0 -208 -52 -278.5t-263 -70.5l-153 -3l-64 -1l-138 5q-115 0 -178.5 52.5t-63.5 169.5l-2 123q0 203 51.5 265.5t247.5 62.5zM407 159l109 -2l104 1q85 0 123 18t38 92l2 90q0 45 -5.5 78t-22 48t-49.5 20t-48.5 5.5
t-24.5 0.5l-202 -1q-71 0 -105 -14q-36 -13 -42 -60l-5 -75v-18v-27q0 -91 21 -123.5t107 -32.5z" />
    <glyph glyph-name="P" unicode="P" horiz-adv-x="951" 
d="M627 667q150 0 209 -48.5t59 -197.5q0 -140 -45.5 -197.5t-190.5 -57.5h-52h-317v-166h-203v667h540zM690 414q0 55 -24 73t-84 18h-292v-177h295q58 0 81.5 16.5t23.5 69.5z" />
    <glyph glyph-name="Q" unicode="Q" horiz-adv-x="1064" 
d="M914 52q-22 -15 -48 -26t-54 -18q-54 -12 -122 -12l-151 -3h-159q-97 0 -155 11.5t-94 51t-45.5 91t-9.5 116.5l-2 83q0 14 1 42t1 41q0 36 10 94.5t77 103t223 44.5l153 2q29 0 74 -1t61 -1q53 0 131 -9q37 0 68 -14t59 -42q50 -48 50 -147l4 -67l1 -45v-41v-28
q-2 -16 -2 -23q0 -21 -1 -33.5t-6 -42.5l86 -47l-71 -134zM782 359l-1 45q0 15 -1.5 23t-6.5 25q-6 30 -38 43t-75 13l-120 2l-93 -1q-38 0 -86 -7q-50 -5 -66 -38t-16 -93v-54q0 -98 24 -130q12 -15 44 -23t86 -8l224 4q20 0 30 1t31 7l-216 119l84 133l196 -126v65z" />
    <glyph glyph-name="R" unicode="R" horiz-adv-x="1011" 
d="M708 667q121 0 171 -47q26 -23 39 -63t13 -101v-11q0 -42 -5 -70t-20 -51t-35 -36q-14 -8 -84 -32q68 -9 102 -35.5t34 -92.5v-128h-206v64q0 48 -8.5 77.5t-79.5 29.5h-339v-171h-203v667h621zM623 333q69 0 86 17t17 76q0 34 -6.5 48.5t-27.5 22.5l-33 7l-31 1h-16
h-322v-172h307h26z" />
    <glyph glyph-name="S" unicode="S" horiz-adv-x="983" 
d="M279 202q0 -40 27 -52q30 -10 77 -10l96 -1l136 4q56 0 73 14t17 44q0 27 -19.5 43t-74.5 16h-33l-334 7q-93 0 -133 47q-38 49 -38 146q0 82 24 127.5t89 63.5q35 9 77.5 14.5t91.5 5.5l141 3l142 -2q44 0 76.5 -3t60.5 -11q51 -12 72.5 -48t28 -65.5t6.5 -80.5h-199
q0 34 -20.5 48.5t-57.5 14.5l-98 1l-155 -5q-29 0 -51.5 -11.5t-22.5 -38.5q0 -36 25 -49q12 -5 29.5 -8t40.5 -3h21l136 -2l134 -1q130 0 187 -41q59 -39 59 -162q0 -118 -52.5 -162t-173.5 -44l-260 -7l-136 3q-109 0 -159.5 35t-50.5 141v40h200z" />
    <glyph glyph-name="T" unicode="T" horiz-adv-x="851" 
d="M324 0v500h-298v167h798v-167h-297v-500h-203z" />
    <glyph glyph-name="U" unicode="U" horiz-adv-x="1030" 
d="M943 286v-39q0 -155 -82.5 -205t-250.5 -50l-166 1q-69 0 -117 3t-85 11q-69 13 -112.5 71t-43.5 179v409h203v-349q0 -98 24 -129t121 -31l91 -1l84 1q83 0 106.5 26t23.5 105v25v353h204v-380z" />
    <glyph glyph-name="V" unicode="V" horiz-adv-x="1036" 
d="M378 0l-352 667h222l262 -503l273 503h226l-372 -667h-259z" />
    <glyph glyph-name="W" unicode="W" horiz-adv-x="1451" 
d="M873 0l-148 473l-154 -473h-273l-271 667h208l195 -506l175 506h245l166 -506l201 506h207l-275 -667h-276z" />
    <glyph glyph-name="X" unicode="X" horiz-adv-x="1056" 
d="M1029 0h-278l-224 239l-225 -239h-276l333 333l-314 334h271l213 -239l214 239h262l-312 -334z" />
    <glyph glyph-name="Y" unicode="Y" horiz-adv-x="1000" 
d="M980 667l-375 -435v-232h-204v232l-381 435h256l226 -275l224 275h254z" />
    <glyph glyph-name="Z" unicode="Z" horiz-adv-x="925" 
d="M868 151v-151h-811v151l503 364h-490v152h788v-152l-507 -364h517z" />
    <glyph glyph-name="bracketleft" unicode="[" horiz-adv-x="424" 
d="M258 534v-614h153v-133h-324v880h324v-133h-153z" />
    <glyph glyph-name="backslash" unicode="\" horiz-adv-x="780" 
d="M757 -213l-723 880h141l727 -880h-145z" />
    <glyph glyph-name="bracketright" unicode="]" horiz-adv-x="424" 
d="M337 -213h-324v133h153v614h-153v133h324v-880z" />
    <glyph glyph-name="asciicircum" unicode="^" 
d="M145 671h209l140 -334h-165l-79 207l-79 -207h-165z" />
    <glyph glyph-name="underscore" unicode="_" 
d="M500 -159h-500v110h500v-110z" />
    <glyph glyph-name="grave" unicode="`" 
d="M357 521l-238 67l39 110l224 -110z" />
    <glyph glyph-name="a" unicode="a" horiz-adv-x="764" 
d="M285 473l181 4q109 0 167 -32t58 -130v-315h-174v76q-19 -55 -71.5 -70.5t-136.5 -15.5h-32q-112 0 -164.5 28t-52.5 130q0 74 40.5 111.5t114.5 37.5l79 3h27h51q52 0 87 -9t58 -41v51q0 41 -18 56t-61 15l-80 2l-57 -2q-24 0 -36.5 -6.5t-12.5 -30.5h-172q0 79 57 109
q30 15 64.5 22t83.5 7zM350 100h15h14h12q19 0 36.5 1t30.5 4q37 6 48 17t11 34q0 27 -23 37t-54 10l-99 2q-45 0 -77.5 -8.5t-32.5 -42.5q0 -32 25 -44q27 -10 65 -10h29z" />
    <glyph glyph-name="b" unicode="b" horiz-adv-x="803" 
d="M246 390q29 56 81 71t137 15q160 0 219.5 -42.5t59.5 -196.5q0 -152 -55 -200q-27 -23 -81 -35t-137 -12h-26q-83 0 -127 17.5t-71 80.5v-88h-173v666h173v-276zM413 118h11q41 0 71 4t47 18.5t21 35.5t5 26v20q0 81 -24 103.5t-115 22.5h-20l-48 -1q-25 0 -57 -6.5
t-47 -31.5q-12 -24 -12 -71q0 -73 31 -96.5t108 -23.5h29z" />
    <glyph glyph-name="c" unicode="c" horiz-adv-x="770" 
d="M656 40q-37 -30 -109.5 -40t-156.5 -10q-124 0 -188 14t-103 67.5t-39 167.5q0 115 43.5 168t154.5 63l164 7q149 0 216.5 -32t67.5 -161h-174l-7 28q-3 10 -15.5 19.5t-40.5 12.5l-58 4h-28q-45 0 -73 -3.5t-44.5 -16.5t-24.5 -34q-6 -20 -6 -59q0 -78 35.5 -97
t122.5 -19q56 0 86 6t39.5 17.5t12.5 21t3 27.5h176q0 -55 -9.5 -88.5t-44.5 -62.5z" />
    <glyph glyph-name="d" unicode="d" horiz-adv-x="804" 
d="M567 0v101q-16 -65 -73 -89q-26 -10 -60.5 -16t-75.5 -6q-87 0 -149 9.5t-94.5 40t-41.5 73.5q-4 21 -6 44t-2 54v34q0 65 9 110.5t47 73t98 38.5q27 4 61 7t65 3q103 0 147 -20t75 -65v275h169v-667h-169zM423 119q80 0 111.5 18.5t31.5 90.5q0 79 -26 99.5t-113 20.5
h-38h-30.5t-38.5 -4q-31 -3 -48 -17q-17 -11 -22 -31.5t-5.5 -34t-0.5 -21.5q0 -76 23 -99t99 -23z" />
    <glyph glyph-name="e" unicode="e" horiz-adv-x="753" 
d="M434 -10l-167 6q-119 0 -163 61t-44 190q0 117 46 172t160 55l164 3q79 0 125.5 -8t81 -36.5t46.5 -71.5t12 -99l-1 -27v-34h-458q0 -55 20 -77.5t74 -22.5l98 -2q11 0 24.5 0.5t32.5 3.5t26.5 12.5t10.5 37.5h172q0 -104 -67.5 -133.5t-192.5 -29.5zM352 373
q-53 0 -85 -11.5t-32 -57.5l1 -13h287q0 51 -25.5 66.5t-80.5 15.5h-65z" />
    <glyph glyph-name="f" unicode="f" horiz-adv-x="517" 
d="M312 352v-352h-174v352h-91v115h91q0 126 49.5 171t177.5 45l63 -3l48 -2v-113l-68 2q-35 0 -50 -4.5t-26 -14.5t-17 -24l-4 -45l1 -12h175v-115h-175z" />
    <glyph glyph-name="g" unicode="g" horiz-adv-x="807" 
d="M735 -20q0 -88 -56.5 -140t-143.5 -52l-76 -6l-84 -2q-136 0 -215 30t-79 141h176q0 -21 18 -33q10 -7 24 -10.5t34 -3.5l48 -3h21q51 0 89.5 6.5t51 25.5t15.5 37l3 39v90q-20 -45 -62 -70t-144 -25q-169 0 -231.5 41.5t-62.5 202.5q0 47 7 85.5t22 65.5q29 56 94 66
q47 6 70.5 8.5t51.5 2.5l79 1q79 0 114 -17q35 -15 62 -79v86h174v-458v-29zM397 132h15h12q44 0 66 4.5t39 15.5t23 31.5t6 45.5v23q0 52 -16 73t-67 21l-92 2h-30q-36 0 -58 -3.5t-35.5 -16t-19.5 -31.5l-4 -37v-17q0 -53 13.5 -76.5t59.5 -29.5l59 -5h29z" />
    <glyph glyph-name="h" unicode="h" horiz-adv-x="783" 
d="M444 477q134 0 200 -44t66 -172v-261h-173v233q0 69 -18.5 92t-109.5 23h-11q-82 0 -116.5 -22t-34.5 -95v-37v-194h-173v667h173v-280q25 56 72 74q50 16 125 16z" />
    <glyph glyph-name="i" unicode="i" horiz-adv-x="320" 
d="M73 541v126h173v-126h-173zM73 0v467h173v-467h-173z" />
    <glyph glyph-name="j" unicode="j" horiz-adv-x="361" 
d="M115 541v126h173v-126h-173zM287 -31q0 -83 -46 -115.5t-135 -32.5q-16 0 -34.5 1t-38.5 4v113l23 -3q29 0 43.5 16t14.5 48v467h174v-443z" />
    <glyph glyph-name="k" unicode="k" horiz-adv-x="746" 
d="M284 316l165 151h232l-243 -213l281 -254h-233l-193 193h-47v-193h-173v667h173v-351h38z" />
    <glyph glyph-name="l" unicode="l" horiz-adv-x="320" 
d="M73 0v667h173v-667h-173z" />
    <glyph glyph-name="m" unicode="m" horiz-adv-x="1188" 
d="M246 380q25 56 73 76.5t118 20.5q79 0 135 -21.5t86 -82.5q18 60 73 82t129 22q118 0 186 -48t68 -162v-267h-173v232v15q0 55 -22 75.5t-90 20.5h-18q-43 0 -73.5 -9t-42.5 -29q-8 -18 -13 -38l-2 -35v-9v-223h-173v244q0 57 -23.5 78t-85.5 21h-15q-68 0 -102.5 -19
t-34.5 -80v-244h-173v467h173v-87z" />
    <glyph glyph-name="n" unicode="n" horiz-adv-x="781" 
d="M246 371q21 62 71.5 84t129.5 22q142 0 201.5 -46t59.5 -186v-245h-174v245q0 61 -25 79.5t-95 18.5h-20q-77 0 -112.5 -22t-35.5 -101v-11v-209h-173v467h173v-96z" />
    <glyph glyph-name="o" unicode="o" horiz-adv-x="789" 
d="M386 476l181 -7q93 -10 130 -57t37 -145v-20q0 -142 -31.5 -190t-174.5 -63l-190 -4q-151 0 -212 39t-61 181v28q0 89 15.5 139.5t70.5 71.5q28 11 60 17.5t66 6.5zM389 118h19h12q39 0 67.5 3t43 14.5t21.5 30.5t7 52v35q0 30 -6 46t-22.5 28.5t-53.5 16.5l-82 4
q-22 0 -41.5 -1t-36.5 -4q-32 -3 -51 -19t-23 -47l-3 -46q0 -33 4.5 -56t22.5 -38q16 -11 60 -16z" />
    <glyph glyph-name="p" unicode="p" horiz-adv-x="803" 
d="M246 392q10 24 22.5 40.5t39.5 26.5q13 4 32 8t30 6l86 4q153 0 219.5 -34.5t66.5 -170.5v-57q0 -60 -6.5 -97t-38 -71.5t-93.5 -46.5q-27 -4 -66.5 -7t-79.5 -3q-79 0 -132 16t-80 73v-286h-173v674h173v-75zM429 119q86 0 112.5 21t26.5 104q0 57 -18.5 79.5
t-78.5 22.5l-114 2q-12 0 -26 -0.5t-30.5 -3.5t-29.5 -13t-17.5 -27t-5.5 -25t-1 -26v-18q0 -60 18.5 -87t77.5 -27z" />
    <glyph glyph-name="q" unicode="q" horiz-adv-x="797" 
d="M732 -207h-173v284q-22 -41 -66 -65q-44 -22 -141 -22q-184 0 -234 50t-50 156q0 172 48 226t217 54h38q77 0 117 -14t71 -67v71h173v-673zM264 143q20 -15 57 -21l88 -4h16q82 0 109.5 19.5t27.5 95.5v7q0 32 -3.5 52t-16.5 30.5t-48 18.5q-16 3 -36.5 5t-46.5 2h-27
h-30.5t-38.5 -4q-31 -3 -46 -17q-15 -12 -21 -33q-5 -23 -5 -49v-7v-27v-18.5t3.5 -23.5t17.5 -26z" />
    <glyph glyph-name="r" unicode="r" horiz-adv-x="659" 
d="M246 374q18 61 66 82t117 21q108 0 149 -38t41 -144v-30h-161l-1 11q0 22 -6.5 37t-18.5 22q-21 13 -75 13q-63 0 -87 -33.5t-24 -101.5v-213h-173v467h173v-93z" />
    <glyph glyph-name="s" unicode="s" horiz-adv-x="771" 
d="M479 366l-29 5l-36 1h-75l-32 -1l-32 -3q-15 -1 -27 -12q-8 -8 -10 -25q0 -19 15.5 -25.5t42.5 -6.5l191 -1q113 0 168.5 -22t55.5 -116q0 -59 -15.5 -92t-60.5 -50t-110 -23q-25 0 -73.5 -2.5t-61.5 -2.5h-73q-63 0 -109 6t-82 20q-66 26 -66 128h181q0 -32 21 -38
t27.5 -7t15.5 -1l42 -1l82 -1h19h16q10 2 14 2q12 0 18.5 1.5t23.5 8.5t17 35q0 21 -18 28t-43 7h-130l-148 4q-135 12 -135 142q0 81 48 110t142 38l169 4h47t40 -2q30 0 79.5 -9t74.5 -39t25 -86h-182q-3 20 -27 26z" />
    <glyph glyph-name="t" unicode="t" horiz-adv-x="652" 
d="M307 352v-149q0 -45 14 -65q16 -19 59 -19q39 0 56.5 12.5t17.5 50.5v21h135q0 -123 -39.5 -168t-167.5 -45q-155 0 -204 39t-49 123v200h-89v115h89v114h178v-114h282v-115h-282z" />
    <glyph glyph-name="u" unicode="u" horiz-adv-x="787" 
d="M541 0v96q-15 -62 -73.5 -84t-139.5 -22q-129 0 -191.5 45t-62.5 172v260h173v-244q0 -65 33 -86q33 -18 107 -18q82 0 118 27t36 102v14v205h173v-467h-173z" />
    <glyph glyph-name="v" unicode="v" horiz-adv-x="748" 
d="M261 0l-231 467h195l150 -335l149 335h194l-230 -467h-227z" />
    <glyph glyph-name="w" unicode="w" horiz-adv-x="1105" 
d="M642 0l-91 276l-97 -276h-238l-170 467h183l109 -349l130 349h165l127 -349l113 349h185l-173 -467h-243z" />
    <glyph glyph-name="x" unicode="x" horiz-adv-x="743" 
d="M713 0h-223l-121 168l-122 -168h-217l207 246l-194 221h231l92 -126l100 126h225l-188 -215z" />
    <glyph glyph-name="y" unicode="y" horiz-adv-x="742" 
d="M242 -212l-65 4v118l38 -1q48 0 66 18t41 73h-71l-214 467h192l137 -344l151 344h192l-274 -583q-30 -63 -70.5 -79.5t-122.5 -16.5z" />
    <glyph glyph-name="z" unicode="z" horiz-adv-x="680" 
d="M318 117h308v-117h-573v120l309 231h-289v116h543v-130z" />
    <glyph glyph-name="braceleft" unicode="{" 
d="M316 45v-15.5t4 -23.5q3 -20 16 -24l27 -7l38 -2l14 1v-166l-116 -3q-41 0 -73 7t-54 22q-43 29 -43 117v131q0 35 -11 56.5t-44 30.5v153q30 6 42 25q3 5 8 18.5t5 33.5v133q0 86 42.5 115t126.5 29l117 -3v-175h-14q-63 0 -71 -8t-14 -63v-61q0 -26 -2 -42t-9 -32
q-10 -25 -48 -51q33 -22 46 -50.5t13 -75.5v-70z" />
    <glyph glyph-name="bar" unicode="|" 
d="M345 -167h-191v833h191v-833z" />
    <glyph glyph-name="braceright" unicode="}" 
d="M184 436q0 46 -17 59q-5 4 -16 7q-20 6 -51 6h-15v165l118 3q83 0 125.5 -29t42.5 -117v-131q0 -37 11.5 -57.5t43.5 -29.5v-153q-30 -6 -42.5 -24.5t-12.5 -52.5v-133q0 -87 -43 -115.5t-125 -28.5l-118 3v175h15q45 0 64.5 9.5t19.5 49.5v73q0 49 11.5 74.5t47.5 51.5
q-34 21 -46.5 50t-12.5 75v70z" />
    <glyph glyph-name="asciitilde" unicode="~" horiz-adv-x="667" 
d="M250 763q32 0 94.5 -26t84.5 -26q17 0 32 15q5 6 13 17t14 23l90 -76q-34 -87 -71 -118t-85 -31q-27 0 -90.5 25.5t-90.5 25.5q-18 0 -33 -16l-26 -39l-90 76q33 87 73 118.5t85 31.5z" />
    <glyph glyph-name="nonbreakingspace" unicode="&#xa0;" horiz-adv-x="250" 
 />
    <glyph glyph-name="exclamdown" unicode="&#xa1;" horiz-adv-x="327" 
d="M65 467h199v-186h-199v186zM78 194h177l11 -394h-197z" />
    <glyph glyph-name="cent" unicode="&#xa2;" horiz-adv-x="953" 
d="M622 314h178q0 -122 -62.5 -159t-201.5 -37h-9v-79h-91v79q-163 0 -222.5 45t-59.5 206q0 135 61.5 186t198.5 51l22 -1v69h91v-69q132 0 203.5 -30.5t71.5 -143.5v-25h-173q-6 40 -31 51.5t-71 11.5v-218q21 0 36.5 3t30.5 11q28 14 28 49zM436 251v218q-59 0 -82 -21.5
t-23 -83.5q0 -65 18 -86q18 -18 87 -27z" />
    <glyph glyph-name="sterling" unicode="&#xa3;" horiz-adv-x="953" 
d="M78 0v145q45 0 59.5 27.5t14.5 77.5h-105v113h103q0 177 41 241t200 64l129 2h52q27 0 59.5 -1.5t71.5 -2.5q24 0 50 -5.5t53 -15.5q50 -15 69 -62t19 -116l-1 -28h-188q0 51 -25.5 66.5t-79.5 15.5l-108 2l-55 -1q-23 0 -48 -6.5t-37 -23t-12 -44.5l1 -56l-1 -29h278
v-113h-276q0 -44 -15.5 -63.5t-61.5 -39.5h641v-147h-828z" />
    <glyph glyph-name="currency" unicode="&#xa4;" horiz-adv-x="729" 
d="M103 340q0 31 9 62.5t27 65.5l-107 107l97 97l109 -109q27 14 63.5 23t69.5 9q21 0 30.5 -1t27.5 -7q16 -3 29 -8t31 -15l108 107l96 -97l-104 -104q17 -31 27 -64q4 -14 7 -32.5t3 -34.5q0 -26 -1.5 -36t-7.5 -34t-23 -57l104 -104l-96 -97l-103 103q-66 -37 -137 -37
q-32 0 -64.5 9.5t-66.5 27.5l-104 -102l-96 95l104 105q-32 62 -32 128zM365 241q41 0 69 29.5t28 68.5q0 40 -27.5 69t-69.5 29q-39 0 -68 -29t-29 -69t27.5 -69t69.5 -29z" />
    <glyph glyph-name="yen" unicode="&#xa5;" horiz-adv-x="1000" 
d="M980 667l-190 -221h141v-70h-201l-78 -90h279v-72h-326v-214h-204v214h-330v72h283l-78 90h-205v70h144l-195 221h256l226 -275l224 275h254z" />
    <glyph glyph-name="brokenbar" unicode="&#xa6;" 
d="M345 305h-191v361h191v-361zM345 -167h-191v320h191v-320z" />
    <glyph glyph-name="section" unicode="&#xa7;" horiz-adv-x="953" 
d="M555 545l-84 1l-76 -1q-48 0 -76 -9.5t-28 -49.5q0 -34 24.5 -46.5t64.5 -12.5l323 -37q82 -11 120 -41t38 -106q0 -44 -15.5 -79t-53.5 -51q41 -13 54 -45.5t13 -79.5q0 -122 -48.5 -164t-177.5 -42l-231 -5l-137 4q-79 0 -126 29.5t-47 106.5v57h181q0 -42 20 -53.5
t65 -11.5l113 -3l105 2q48 0 75 14q28 12 28 55q0 50 -62 59l-389 50q-126 17 -126 149q0 47 15.5 71.5t59.5 43.5q-45 17 -57 50t-12 92q0 102 51 139.5t155 37.5l164 4h137q120 0 170 -36.5t50 -151.5h-179q0 38 -27 49t-74 11zM381 181l274 -35q19 22 29 43
q5 13 6.5 19.5t1.5 15.5q0 29 -23.5 42t-61.5 19l-279 34q-15 -17 -25 -35q-8 -18 -8 -39q0 -34 22 -47q18 -9 64 -17z" />
    <glyph glyph-name="dieresis" unicode="&#xa8;" 
d="M74 533v101h139v-101h-139zM287 533v101h139v-101h-139z" />
    <glyph glyph-name="copyright" unicode="&#xa9;" horiz-adv-x="762" 
d="M192 335q0 84 53 142.5t138 58.5q69 0 120.5 -40.5t51.5 -105.5h-83q-7 27 -32 39t-58 12q-40 0 -60 -32t-20 -73q0 -43 20 -74t60 -31q35 0 60 15t32 50h84q0 -71 -51 -115t-125 -44q-86 0 -138 56q-26 28 -39 63t-13 79zM383 -15q-142 0 -245.5 102.5t-103.5 245.5
q0 144 102 246t247 102q141 0 242.5 -103t101.5 -245q0 -144 -100 -246t-244 -102zM382 63q108 0 184 81t76 189q0 109 -75.5 189.5t-184.5 80.5q-110 0 -186.5 -79.5t-76.5 -190.5t76.5 -190.5t186.5 -79.5z" />
    <glyph glyph-name="ordfeminine" unicode="&#xaa;" horiz-adv-x="415" 
d="M157 665l111 2q63 0 98 -18.5t35 -78.5v-189h-105v46q-10 -33 -43 -42.5t-81 -9.5q-76 0 -113 15t-37 80q0 42 25 65.5t68 23.5l64 2h32q33 0 51.5 -4.5t33.5 -25.5v31q0 16 -3.5 25t-11.5 12t-44 6l-36 1l-34 -2q-15 0 -21.5 -3.5t-8.5 -18.5h-103q0 45 36.5 64t86.5 19
zM268 445q28 3 28 30q0 15 -14 21.5t-32 6.5l-58 1q-23 0 -36.5 -2.5t-21 -8t-9.5 -19.5q0 -20 14 -26.5t39 -6.5h24h41zM422 332v-82h-406v82h406z" />
    <glyph glyph-name="guillemotleft" unicode="&#xab;" horiz-adv-x="633" 
d="M300 70l-123 -68l-144 241l144 247l124 -70l-104 -177zM573 70l-123 -68l-144 241l144 247l123 -70l-104 -177z" />
    <glyph glyph-name="logicalnot" unicode="&#xac;" 
d="M33 132v166h433v-298h-184v132h-249z" />
    <glyph glyph-name="minus" unicode="&#xad;" horiz-adv-x="1000" 
 />
    <glyph glyph-name="registered" unicode="&#xae;" horiz-adv-x="762" 
d="M538 424q0 -66 -60 -95q44 -18 51 -74l13 -107h-104q-5 10 -8.5 32t-3.5 53q0 65 -82 65v-150h-109v381h162q59 0 101 -24q40 -25 40 -81zM375 360q55 0 55 55q0 48 -51 48h-35v-103h31zM383 -15q-142 0 -245.5 102.5t-103.5 245.5q0 144 102 246t247 102
q141 0 242.5 -103t101.5 -245q0 -144 -100 -246t-244 -102zM382 63q108 0 184 81t76 189q0 109 -75.5 189.5t-184.5 80.5q-110 0 -186.5 -79.5t-76.5 -190.5t76.5 -190.5t186.5 -79.5z" />
    <glyph glyph-name="macron" unicode="&#xaf;" 
d="M74 533v101h352v-101h-352z" />
    <glyph glyph-name="degree" unicode="&#xb0;" 
d="M85 503q0 73 45.5 123t119.5 50q69 0 117 -48.5t48 -119.5q0 -67 -49.5 -115t-117.5 -48q-64 0 -113.5 46.5t-49.5 111.5zM156 509q0 -36 27 -66q28 -28 65 -28q38 0 67 27.5t29 66.5q0 38 -27 67.5t-67 29.5q-38 0 -66 -29.5t-28 -67.5z" />
    <glyph glyph-name="plusminus" unicode="&#xb1;" 
d="M204 615h90v-203h202v-86h-202v-194h-90v194h-201v86h201v203zM496 6h-493v86h493v-86z" />
    <glyph glyph-name="twosuperior" unicode="&#xb2;" horiz-adv-x="598" 
d="M59 267v103q0 32 6 53.5t33 41.5q14 10 44 17t69 7l135 9q25 0 38.5 2t25 6.5t11.5 32.5q0 25 -6.5 32.5t-24.5 10.5t-42 3l-58 -1h-27t-31 -2q-32 0 -44 -11t-12 -41v-11h-116l-1 30q0 77 34 97.5t118 20.5l148 2l57 -1q67 0 96 -26.5t29 -94.5q0 -76 -27.5 -105
t-103.5 -29l-100 -7l-86 -6q-27 0 -38 -6.5t-11 -32.5v-10h366v-84h-482z" />
    <glyph glyph-name="threesuperior" unicode="&#xb3;" horiz-adv-x="598" 
d="M354 507q28 0 44.5 6t16.5 30q0 22 -6.5 28t-20.5 9l-20 2l-83 2l-59 -2q-27 0 -39.5 -8t-12.5 -33l1 -13h-120q0 72 24.5 100t97.5 37l129 4h36l45 -1q20 0 61.5 -5.5t64 -30t22.5 -78.5q0 -42 -13.5 -58.5t-60.5 -27.5q45 -7 64.5 -26.5t19.5 -67.5q0 -66 -42.5 -87.5
t-118.5 -21.5h-175q-81 0 -118.5 22t-37.5 97l1 24h116q0 -32 9 -46q9 -11 43 -11l152 -1q23 0 37 6.5t14 29.5q0 22 -11 31.5t-35 9.5h-131v80h106z" />
    <glyph glyph-name="acute" unicode="&#xb4;" 
d="M144 521l-25 67l224 110l39 -110z" />
    <glyph glyph-name="mu" unicode="&#xb5;" horiz-adv-x="608" 
d="M228 479v-240q0 -65 21 -90t58 -25q43 0 58 33t15 83v239h173v-479h-173v53q-12 -28 -29 -45t-44 -17q-25 0 -44.5 14t-34.5 39v-217h-173v652h173z" />
    <glyph glyph-name="paragraph" unicode="&#xb6;" horiz-adv-x="655" 
d="M245 322q-80 0 -130 45.5t-50 125.5q0 97 63.5 135.5t165.5 38.5h266v-68h-48v-712h-88v712h-80v-712h-88v436z" />
    <glyph glyph-name="periodcentered" unicode="&#xb7;" horiz-adv-x="273" 
d="M60 170v157h153v-157h-153z" />
    <glyph glyph-name="periodcentered" unicode="&#x2219;" horiz-adv-x="273" 
d="M60 170v157h153v-157h-153z" />
    <glyph glyph-name="cedilla" unicode="&#xb8;" 
d="M177 8h71v-53h73q32 0 45 -11q11 -13 11 -46v-98q0 -37 -11.5 -47.5t-54.5 -10.5h-137v72h84q19 0 25 5t6 25v15q0 17 -5 24q-5 3 -26 3h-81v122z" />
    <glyph glyph-name="onesuperior" unicode="&#xb9;" horiz-adv-x="598" 
d="M290 267v301l-146 -97l-57 84l176 112h153v-400h-126z" />
    <glyph glyph-name="ordmasculine" unicode="&#xba;" horiz-adv-x="435" 
d="M206 668l61 -2l48 -2q53 -6 76.5 -35t23.5 -88v-26q0 -48 -7.5 -75.5t-30 -39t-45.5 -17.5l-41 -4l-57 -1h-26t-30 -2q-88 0 -126.5 24t-38.5 108v17v5q0 94 40.5 116t152.5 22zM213 453h22h16q9 2 13 2q17 0 28.5 8.5t14.5 19.5t3 29v22l-3 26q-2 11 -12.5 18t-34.5 10
l-49 3l-46 -3q-20 -3 -30.5 -11t-14.5 -23l-2 -33q0 -23 2.5 -35t11.5 -20q8 -5 28 -10q18 -3 53 -3zM422 332v-82h-406v82h406z" />
    <glyph glyph-name="guillemotright" unicode="&#xbb;" horiz-adv-x="633" 
d="M600 243l-144 -241l-123 68l104 173l-104 177l123 70zM328 243l-145 -241l-123 68l104 173l-104 177l123 70z" />
    <glyph glyph-name="onequarter" unicode="&#xbc;" horiz-adv-x="1422" 
d="M290 267v301l-146 -98l-57 85l176 112h153v-400h-126zM484 0h-101l555 667h100zM1378 163v-84h-66v-79h-117v79h-324v141l295 180h146v-237h66zM964 163h231v142z" />
    <glyph glyph-name="onehalf" unicode="&#xbd;" horiz-adv-x="1422" 
d="M290 267v301l-146 -98l-57 85l176 112h153v-400h-126zM484 0h-101l555 667h100zM882 0v103q0 32 6 53.5t33 42.5q14 10 44 17t69 7l136 9q24 0 39.5 2.5t22.5 7.5q12 6 12 30v7q0 15 -5.5 24t-25.5 12l-42 3l-59 -1h-27t-31 -2q-30 0 -42.5 -9.5t-12.5 -38.5l-1 -15h-116
v30q0 81 34.5 99.5t116.5 18.5l149 2q120 0 150.5 -29t30.5 -93q0 -76 -27.5 -105t-103.5 -29l-100 -7l-85 -6q-25 0 -37 -6.5t-12 -30.5v-12h365v-84h-481z" />
    <glyph glyph-name="threequarters" unicode="&#xbe;" horiz-adv-x="1422" 
d="M354 507q28 0 44.5 6t16.5 29q0 14 -2 19q0 6 -7.5 11.5t-34.5 8.5l-55 3h-31l-59 -2q-27 0 -39.5 -8t-12.5 -34l1 -12h-120q0 72 26 104t96 32l60 4l69 1h32l46 -1q20 0 63 -5.5t65.5 -30t22.5 -78.5q0 -35 -12 -54t-47 -29l-15 -4q45 -4 64.5 -25.5t19.5 -67.5
q0 -66 -42.5 -87.5t-118.5 -21.5h-175q-81 0 -118.5 22t-37.5 97l1 24h116q0 -32 9 -46q9 -11 43 -11l152 -1q28 0 39.5 9t11.5 26q0 25 -11 33.5t-35 8.5l-31 -1h-100v81h106zM484 0h-101l555 667h100zM1378 163v-84h-66v-79h-117v79h-324v141l295 180h146v-237h66z
M964 163h231v142z" />
    <glyph glyph-name="questiondown" unicode="&#xbf;" horiz-adv-x="796" 
d="M517 466v-186h-199v186h199zM288 48q-34 -5 -56.5 -19.5t-22.5 -44.5q0 -31 27.5 -46t63.5 -15l66 -2l88 2q47 0 68 17t21 60v12q0 8 -2 16h175v-31q0 -65 -15 -110t-60 -64t-113 -25q-27 0 -79.5 -2.5t-67.5 -2.5q-17 0 -51.5 1t-51.5 1q-39 0 -67.5 4t-43.5 6
q-63 7 -94.5 52.5t-31.5 124.5v21q0 20 1 38t5.5 39t29.5 48t139.5 47.5t114.5 55.5h171q0 -114 -37.5 -139t-176.5 -44z" />
    <glyph glyph-name="Agrave" unicode="&#xc0;" horiz-adv-x="1077" 
d="M260 0h-226l372 667h274l364 -667h-224l-63 121h-431zM397 259h286l-143 264zM646 727l-238 67l39 110l224 -110z" />
    <glyph glyph-name="Aacute" unicode="&#xc1;" horiz-adv-x="1077" 
d="M260 0h-226l372 667h274l364 -667h-224l-63 121h-431zM397 259h286l-143 264zM433 727l-25 67l224 110l39 -110z" />
    <glyph glyph-name="Acircumflex" unicode="&#xc2;" horiz-adv-x="1077" 
d="M260 0h-226l372 667h274l364 -667h-224l-63 121h-431zM397 259h286l-143 264zM713 724l-176 63l-175 -63l-23 60l200 114l201 -114z" />
    <glyph glyph-name="Atilde" unicode="&#xc3;" horiz-adv-x="1077" 
d="M260 0h-226l372 667h274l364 -667h-224l-63 121h-431zM397 259h286l-143 264zM620 721q-21 0 -77 21q-27 10 -47 16t-32 6q-21 0 -31 -10.5t-16 -33.5h-89q11 65 38.5 104.5t83.5 39.5q28 0 81 -21q26 -10 45 -15t34 -5q22 0 36.5 11.5t14.5 31.5h90q-6 -60 -40.5 -102.5
t-90.5 -42.5z" />
    <glyph glyph-name="Adieresis" unicode="&#xc4;" horiz-adv-x="1077" 
d="M260 0h-226l372 667h274l364 -667h-224l-63 121h-431zM397 259h286l-143 264zM363 729v101h139v-101h-139zM576 729v101h139v-101h-139z" />
    <glyph glyph-name="Aring" unicode="&#xc5;" horiz-adv-x="1077" 
d="M260 0h-226l372 667h274l364 -667h-224l-63 121h-431zM397 259h286l-143 264zM678 789q0 -44 -42 -61.5t-95 -17.5q-54 0 -97 15.5t-43 62.5q0 41 45 57.5t93 16.5q54 0 96.5 -15t42.5 -58zM541 754q33 0 56.5 6t23.5 26q0 24 -29 28l-45 5h-8q-30 0 -55.5 -6.5
t-25.5 -28.5q0 -18 21 -24t49 -6h13z" />
    <glyph glyph-name="AE" unicode="&#xc6;" horiz-adv-x="1494" 
d="M1397 401v-132h-505v-118h539v-151h-729v121h-361l-81 -121h-240l446 667h965v-152h-539v-114h505zM597 515l-170 -258h275v258h-105z" />
    <glyph glyph-name="Ccedilla" unicode="&#xc7;" horiz-adv-x="999" 
d="M457 -6l-60 1q-201 0 -258.5 52.5t-57.5 163.5l-6 140q0 163 48 240t196 77l190 5q29 0 75 -1t62 -1q57 0 132 -9.5t108.5 -67.5t33.5 -162h-197q0 45 -22.5 61t-71.5 16l-57 1h-56l-103 -1q-91 0 -113 -34q-20 -34 -20 -141q0 -100 21 -139q22 -37 115 -37l95 -2l104 1
q61 0 87 17t26 80h199l1 -29q0 -137 -50.5 -183t-199.5 -46l-150 -3v-38h73q32 0 45 -11q11 -13 11 -46v-98q0 -37 -11.5 -47.5t-54.5 -10.5h-137v72h84q19 0 25 5t6 25v15q0 17 -5 24q-5 3 -26 3h-81v108z" />
    <glyph glyph-name="Egrave" unicode="&#xc8;" horiz-adv-x="894" 
d="M831 667v-152h-541v-114h505v-132h-505v-118h541v-151h-744v667h744zM554 727l-238 67l39 110l224 -110z" />
    <glyph glyph-name="Eacute" unicode="&#xc9;" horiz-adv-x="894" 
d="M831 667v-152h-541v-114h505v-132h-505v-118h541v-151h-744v667h744zM341 727l-25 67l224 110l39 -110z" />
    <glyph glyph-name="Ecircumflex" unicode="&#xca;" horiz-adv-x="894" 
d="M831 667v-152h-541v-114h505v-132h-505v-118h541v-151h-744v667h744zM621 724l-176 63l-175 -63l-23 60l200 114l201 -114z" />
    <glyph glyph-name="Edieresis" unicode="&#xcb;" horiz-adv-x="894" 
d="M831 667v-152h-541v-114h505v-132h-505v-118h541v-151h-744v667h744zM271 729v101h139v-101h-139zM484 729v101h139v-101h-139z" />
    <glyph glyph-name="Igrave" unicode="&#xcc;" horiz-adv-x="377" 
d="M87 0v667h203v-667h-203zM296 727l-238 67l39 110l224 -110z" />
    <glyph glyph-name="Iacute" unicode="&#xcd;" horiz-adv-x="377" 
d="M87 0v667h203v-667h-203zM83 727l-25 67l224 110l39 -110z" />
    <glyph glyph-name="Icircumflex" unicode="&#xce;" horiz-adv-x="377" 
d="M87 0v667h203v-667h-203zM363 724l-176 63l-175 -63l-23 60l200 114l201 -114z" />
    <glyph glyph-name="Idieresis" unicode="&#xcf;" horiz-adv-x="377" 
d="M87 0v667h203v-667h-203zM13 729v101h139v-101h-139zM226 729v101h139v-101h-139z" />
    <glyph glyph-name="Eth" unicode="&#xd0;" horiz-adv-x="1017" 
d="M944 376l1 -140q0 -124 -42.5 -183t-165.5 -59l-106 -1l-121 1l-105 1q-114 0 -181 15t-107.5 68.5t-40.5 162.5l-2 84q0 195 48 270t226 75l152 3l56 1l136 -3q132 0 191.5 -45.5t59.5 -175.5v-12h-199q0 24 -6.5 41t-23 22.5t-40.5 9.5l-50 2l-235 1q-72 0 -91 -35.5
t-19 -117.5v-62q0 -69 18 -102t55 -39l54 -5l48 -1l181 -1q52 0 81 17t29 64l-1 19h-257v125h457zM310 922h90q15 -37 47 -60t71 -23t69 22t48 61h90q-12 -76 -70.5 -126t-136.5 -50t-134.5 49.5t-73.5 126.5z" />
    <glyph glyph-name="Ntilde" unicode="&#xd1;" horiz-adv-x="1089" 
d="M679 0l-402 501v-501h-191v667h323l402 -500v500h191v-667h-323zM625 721q-21 0 -77 21q-27 10 -47 16t-32 6q-21 0 -31 -10.5t-16 -33.5h-89q11 65 38.5 104.5t83.5 39.5q28 0 81 -21q26 -10 45 -15t34 -5q22 0 36.5 11.5t14.5 31.5h90q-6 -60 -40.5 -102.5t-90.5 -42.5
z" />
    <glyph glyph-name="Ograve" unicode="&#xd2;" horiz-adv-x="1061" 
d="M517 674l162 -1q178 0 243.5 -59t65.5 -236v-32q0 -208 -52 -278.5t-263 -70.5l-153 -3l-64 -1l-138 5q-115 0 -178.5 52.5t-63.5 169.5l-2 123q0 203 51.5 265.5t247.5 62.5zM407 159l109 -2l104 1q85 0 123 18t38 92l2 90q0 45 -5.5 78t-22 48t-49.5 20t-48.5 5.5
t-24.5 0.5l-202 -1q-71 0 -105 -14q-36 -13 -42 -60l-5 -75v-18v-27q0 -91 21 -123.5t107 -32.5zM638 727l-238 67l39 110l224 -110z" />
    <glyph glyph-name="Oacute" unicode="&#xd3;" horiz-adv-x="1061" 
d="M517 674l162 -1q178 0 243.5 -59t65.5 -236v-32q0 -208 -52 -278.5t-263 -70.5l-153 -3l-64 -1l-138 5q-115 0 -178.5 52.5t-63.5 169.5l-2 123q0 203 51.5 265.5t247.5 62.5zM407 159l109 -2l104 1q85 0 123 18t38 92l2 90q0 45 -5.5 78t-22 48t-49.5 20t-48.5 5.5
t-24.5 0.5l-202 -1q-71 0 -105 -14q-36 -13 -42 -60l-5 -75v-18v-27q0 -91 21 -123.5t107 -32.5zM425 727l-25 67l224 110l39 -110z" />
    <glyph glyph-name="Ocircumflex" unicode="&#xd4;" horiz-adv-x="1061" 
d="M517 674l162 -1q178 0 243.5 -59t65.5 -236v-32q0 -208 -52 -278.5t-263 -70.5l-153 -3l-64 -1l-138 5q-115 0 -178.5 52.5t-63.5 169.5l-2 123q0 203 51.5 265.5t247.5 62.5zM407 159l109 -2l104 1q85 0 123 18t38 92l2 90q0 45 -5.5 78t-22 48t-49.5 20t-48.5 5.5
t-24.5 0.5l-202 -1q-71 0 -105 -14q-36 -13 -42 -60l-5 -75v-18v-27q0 -91 21 -123.5t107 -32.5zM705 724l-176 63l-175 -63l-23 60l200 114l201 -114z" />
    <glyph glyph-name="Otilde" unicode="&#xd5;" horiz-adv-x="1061" 
d="M517 674l162 -1q178 0 243.5 -59t65.5 -236v-32q0 -208 -52 -278.5t-263 -70.5l-153 -3l-64 -1l-138 5q-115 0 -178.5 52.5t-63.5 169.5l-2 123q0 203 51.5 265.5t247.5 62.5zM407 159l109 -2l104 1q85 0 123 18t38 92l2 90q0 45 -5.5 78t-22 48t-49.5 20t-48.5 5.5
t-24.5 0.5l-202 -1q-71 0 -105 -14q-36 -13 -42 -60l-5 -75v-18v-27q0 -91 21 -123.5t107 -32.5zM612 721q-21 0 -77 21q-27 10 -47 16t-32 6q-21 0 -31 -10.5t-16 -33.5h-89q11 65 38.5 104.5t83.5 39.5q28 0 81 -21q26 -10 45 -15t34 -5q22 0 36.5 11.5t14.5 31.5h90
q-6 -60 -40.5 -102.5t-90.5 -42.5z" />
    <glyph glyph-name="Odieresis" unicode="&#xd6;" horiz-adv-x="1061" 
d="M517 674l162 -1q178 0 243.5 -59t65.5 -236v-32q0 -208 -52 -278.5t-263 -70.5l-153 -3l-64 -1l-138 5q-115 0 -178.5 52.5t-63.5 169.5l-2 123q0 203 51.5 265.5t247.5 62.5zM407 159l109 -2l104 1q85 0 123 18t38 92l2 90q0 45 -5.5 78t-22 48t-49.5 20t-48.5 5.5
t-24.5 0.5l-202 -1q-71 0 -105 -14q-36 -13 -42 -60l-5 -75v-18v-27q0 -91 21 -123.5t107 -32.5zM355 729v101h139v-101h-139zM568 729v101h139v-101h-139z" />
    <glyph glyph-name="multiply" unicode="&#xd7;" 
d="M395 575l63 -63l-147 -146l146 -144l-61 -61l-145 145l-146 -147l-63 63l147 146l-144 144l61 61l143 -145z" />
    <glyph glyph-name="Oslash" unicode="&#xd8;" horiz-adv-x="1061" 
d="M1036 559l-62 -36l7 -30l5 -57l2 -90q0 -206 -53 -277.5t-262 -71.5l-154 -4l-178 3q-62 0 -110 11.5t-85 42.5l-121 -70v122l64 37q-2 6 -5.5 19t-5.5 26l-3 51v15l-1 92q0 204 51 266.5t248 62.5l143 2l163 -1l82 -1q15 0 33.5 -3t31.5 -5q50 -6 95 -46l115 67v-125z
M431 508h-32t-40.5 -3.5t-47 -21.5t-27.5 -47q-6 -27 -6 -69v-56v-22t4 -36l1 -4l434 253l-48 6l-61 2zM384 159l132 -3l90 1q113 0 145 26t32 132l-3 99l-431 -250z" />
    <glyph glyph-name="Ugrave" unicode="&#xd9;" horiz-adv-x="1030" 
d="M943 286v-39q0 -155 -82.5 -205t-250.5 -50l-166 1q-69 0 -117 3t-85 11q-69 13 -112.5 71t-43.5 179v409h203v-349q0 -98 24 -129t121 -31l91 -1l84 1q83 0 106.5 26t23.5 105v25v353h204v-380zM621 727l-238 67l39 110l224 -110z" />
    <glyph glyph-name="Uacute" unicode="&#xda;" horiz-adv-x="1030" 
d="M943 286v-39q0 -155 -82.5 -205t-250.5 -50l-166 1q-69 0 -117 3t-85 11q-69 13 -112.5 71t-43.5 179v409h203v-349q0 -98 24 -129t121 -31l91 -1l84 1q83 0 106.5 26t23.5 105v25v353h204v-380zM408 727l-25 67l224 110l39 -110z" />
    <glyph glyph-name="Ucircumflex" unicode="&#xdb;" horiz-adv-x="1030" 
d="M943 286v-39q0 -155 -82.5 -205t-250.5 -50l-166 1q-69 0 -117 3t-85 11q-69 13 -112.5 71t-43.5 179v409h203v-349q0 -98 24 -129t121 -31l91 -1l84 1q83 0 106.5 26t23.5 105v25v353h204v-380zM688 723l-176 63l-175 -63l-23 60l200 114l201 -114z" />
    <glyph glyph-name="Udieresis" unicode="&#xdc;" horiz-adv-x="1030" 
d="M943 286v-39q0 -155 -82.5 -205t-250.5 -50l-166 1q-69 0 -117 3t-85 11q-69 13 -112.5 71t-43.5 179v409h203v-349q0 -98 24 -129t121 -31l91 -1l84 1q83 0 106.5 26t23.5 105v25v353h204v-380zM338 729v101h139v-101h-139zM551 729v101h139v-101h-139z" />
    <glyph glyph-name="Yacute" unicode="&#xdd;" horiz-adv-x="377" 
d="M87 0v667h203v-667h-203zM90 740v144h199v-144h-199z" />
    <glyph glyph-name="Thorn" unicode="&#xde;" horiz-adv-x="983" 
d="M461 -5l-37 -1l-136 3q-109 0 -159.5 35t-50.5 141v40h200l1 -11q0 -40 27 -52q30 -10 77 -10l96 -1l136 4q56 0 73 14t17 44q0 27 -19.5 43t-74.5 16h-33l-334 7q-93 0 -133 47q-38 49 -38 146q0 82 24 127.5t89 63.5q35 9 77.5 14.5t91.5 5.5l141 3l142 -2
q44 0 76.5 -3t60.5 -11q51 -12 72.5 -48t28 -65.5t6.5 -80.5h-199q0 34 -20.5 48.5t-57.5 14.5l-98 1l-155 -5q-29 0 -51.5 -11.5t-22.5 -38.5q0 -36 25 -49q12 -5 29.5 -8t40.5 -3h21l136 -2l134 -1q130 0 187 -41q59 -39 59 -162q0 -118 -52.5 -162t-173.5 -44l-152 -4
v-42h73q32 0 45 -11q11 -13 11 -46v-98q0 -37 -11.5 -47.5t-54.5 -10.5h-137v72h84q19 0 25 5t6 25v15q0 17 -5 24q-5 3 -26 3h-81v109z" />
    <glyph glyph-name="germandbls" unicode="&#xdf;" horiz-adv-x="809" 
d="M250 674l90 7l104 2q114 0 186 -26.5t72 -120.5q0 -59 -20.5 -86.5t-80.5 -45.5q78 -10 113 -52t35 -122q0 -122 -56.5 -181t-181.5 -59q-68 0 -117 14t-70 46t-26.5 65t-5.5 70h149q0 -36 11 -50q12 -12 43 -12q48 0 62 27q13 29 13 85q0 64 -19.5 88.5t-79.5 24.5h-144
v119h139q31 0 46.5 9t15.5 38q0 24 -14.5 32.5t-38.5 11.5l-41 2h-57q-71 0 -99 -19t-28 -89v-452h-177v481q0 90 43.5 136.5t133.5 56.5z" />
    <glyph glyph-name="agrave" unicode="&#xe0;" horiz-adv-x="764" 
d="M285 473l181 4q109 0 167 -32t58 -130v-315h-174v76q-19 -55 -71.5 -70.5t-136.5 -15.5h-32q-112 0 -164.5 28t-52.5 130q0 74 40.5 111.5t114.5 37.5l79 3h27h51q52 0 87 -9t58 -41v51q0 41 -18 56t-61 15l-80 2l-57 -2q-24 0 -36.5 -6.5t-12.5 -30.5h-172q0 79 57 109
q30 15 64.5 22t83.5 7zM350 100h15h14h12q19 0 36.5 1t30.5 4q37 6 48 17t11 34q0 27 -23 37t-54 10l-99 2q-45 0 -77.5 -8.5t-32.5 -42.5q0 -32 25 -44q27 -10 65 -10h29zM489 521l-238 67l39 110l224 -110z" />
    <glyph glyph-name="aacute" unicode="&#xe1;" horiz-adv-x="764" 
d="M285 473l181 4q109 0 167 -32t58 -130v-315h-174v76q-19 -55 -71.5 -70.5t-136.5 -15.5h-32q-112 0 -164.5 28t-52.5 130q0 74 40.5 111.5t114.5 37.5l79 3h27h51q52 0 87 -9t58 -41v51q0 41 -18 56t-61 15l-80 2l-57 -2q-24 0 -36.5 -6.5t-12.5 -30.5h-172q0 79 57 109
q30 15 64.5 22t83.5 7zM350 100h15h14h12q19 0 36.5 1t30.5 4q37 6 48 17t11 34q0 27 -23 37t-54 10l-99 2q-45 0 -77.5 -8.5t-32.5 -42.5q0 -32 25 -44q27 -10 65 -10h29zM276 521l-25 67l224 110l39 -110z" />
    <glyph glyph-name="acircumflex" unicode="&#xe2;" horiz-adv-x="764" 
d="M285 473l181 4q109 0 167 -32t58 -130v-315h-174v76q-19 -55 -71.5 -70.5t-136.5 -15.5h-32q-112 0 -164.5 28t-52.5 130q0 74 40.5 111.5t114.5 37.5l79 3h27h51q52 0 87 -9t58 -41v51q0 41 -18 56t-61 15l-80 2l-57 -2q-24 0 -36.5 -6.5t-12.5 -30.5h-172q0 79 57 109
q30 15 64.5 22t83.5 7zM350 100h15h14h12q19 0 36.5 1t30.5 4q37 6 48 17t11 34q0 27 -23 37t-54 10l-99 2q-45 0 -77.5 -8.5t-32.5 -42.5q0 -32 25 -44q27 -10 65 -10h29zM556 532l-176 63l-175 -63l-23 60l200 114l201 -114z" />
    <glyph glyph-name="atilde" unicode="&#xe3;" horiz-adv-x="764" 
d="M285 473l181 4q109 0 167 -32t58 -130v-315h-174v76q-19 -55 -71.5 -70.5t-136.5 -15.5h-32q-112 0 -164.5 28t-52.5 130q0 74 40.5 111.5t114.5 37.5l79 3h27h51q52 0 87 -9t58 -41v51q0 41 -18 56t-61 15l-80 2l-57 -2q-24 0 -36.5 -6.5t-12.5 -30.5h-172q0 79 57 109
q30 15 64.5 22t83.5 7zM350 100h15h14h12q19 0 36.5 1t30.5 4q37 6 48 17t11 34q0 27 -23 37t-54 10l-99 2q-45 0 -77.5 -8.5t-32.5 -42.5q0 -32 25 -44q27 -10 65 -10h29zM463 526q-21 0 -77 21q-27 10 -47 16t-32 6q-21 0 -31 -10.5t-16 -33.5h-89q11 65 38.5 104.5
t83.5 39.5q28 0 81 -21q26 -10 45 -15t34 -5q22 0 36.5 11.5t14.5 31.5h90q-6 -60 -40.5 -102.5t-90.5 -42.5z" />
    <glyph glyph-name="adieresis" unicode="&#xe4;" horiz-adv-x="764" 
d="M285 473l181 4q109 0 167 -32t58 -130v-315h-174v76q-19 -55 -71.5 -70.5t-136.5 -15.5h-32q-112 0 -164.5 28t-52.5 130q0 74 40.5 111.5t114.5 37.5l79 3h27h51q52 0 87 -9t58 -41v51q0 41 -18 56t-61 15l-80 2l-57 -2q-24 0 -36.5 -6.5t-12.5 -30.5h-172q0 79 57 109
q30 15 64.5 22t83.5 7zM350 100h15h14h12q19 0 36.5 1t30.5 4q37 6 48 17t11 34q0 27 -23 37t-54 10l-99 2q-45 0 -77.5 -8.5t-32.5 -42.5q0 -32 25 -44q27 -10 65 -10h29zM206 534v101h139v-101h-139zM419 534v101h139v-101h-139z" />
    <glyph glyph-name="aring" unicode="&#xe5;" horiz-adv-x="764" 
d="M285 473l181 4q109 0 167 -32t58 -130v-315h-174v76q-19 -55 -71.5 -70.5t-136.5 -15.5h-32q-112 0 -164.5 28t-52.5 130q0 74 40.5 111.5t114.5 37.5l79 3h27h51q52 0 87 -9t58 -41v51q0 41 -18 56t-61 15l-80 2l-57 -2q-24 0 -36.5 -6.5t-12.5 -30.5h-172q0 79 57 109
q30 15 64.5 22t83.5 7zM350 100h15h14h12q19 0 36.5 1t30.5 4q37 6 48 17t11 34q0 27 -23 37t-54 10l-99 2q-45 0 -77.5 -8.5t-32.5 -42.5q0 -32 25 -44q27 -10 65 -10h29zM521 613q0 -44 -42 -61.5t-95 -17.5q-54 0 -97 15.5t-43 62.5q0 41 45 57.5t93 16.5q54 0 96.5 -15
t42.5 -58zM384 578q33 0 56.5 6t23.5 26q0 24 -29 28l-45 5h-8q-30 0 -55.5 -6.5t-25.5 -28.5q0 -18 21 -24t49 -6h13z" />
    <glyph glyph-name="ae" unicode="&#xe6;" horiz-adv-x="1207" 
d="M795 96l88 -2q41 0 67.5 9t26.5 45h174q-9 -101 -80 -129.5t-198 -28.5h-51h-16h-13h-11q-18 0 -34.5 1t-29.5 4q-19 0 -33 3.5t-39 12.5q-36 12 -57 57q-12 -25 -30 -39t-50 -24q-25 -7 -38.5 -9.5t-30.5 -2.5q-30 0 -54 -1t-45 -2h-18h-15q-58 0 -116.5 8t-92.5 42
t-34 100q0 78 35.5 116t111.5 38l96 3l82 -1q58 0 82.5 -6.5t52.5 -40.5v54q0 39 -22.5 52t-65.5 13l-89 2h-26t-22 -2q-15 0 -24 -6l-10 -11l-4 -15h-177q0 84 56 112.5t152 28.5h101l53 -1h36q19 -3 28 -4q20 0 41 -8q12 -5 22 -10q26 -13 41 -51q30 48 78 61t120 13h39
q193 0 246.5 -48.5t53.5 -155.5l-1 -75h-458q0 -61 20 -82q22 -20 82 -20zM865 366h-27q-102 0 -121.5 -15t-26.5 -63h288q0 24 -4 37q-3 15 -17 24t-39 13zM369 98h27l41 1q22 0 41 4q22 3 34 13t12 29q0 23 -17.5 38t-63.5 15h-123q-43 0 -61.5 -12.5t-18.5 -33.5
q0 -31 22 -43q25 -10 60 -10z" />
    <glyph glyph-name="ccedilla" unicode="&#xe7;" horiz-adv-x="764" 
d="M357 -10q-43 0 -80 4t-66 10q-66 14 -105 67.5t-39 167.5q0 116 45 173.5t153 57.5l164 7q149 0 216.5 -32t67.5 -161h-174l-7 28q-3 10 -15.5 19.5t-40.5 12.5l-58 4h-28q-45 0 -73 -3.5t-44.5 -16.5t-24.5 -34q-6 -20 -6 -59q0 -78 35.5 -97t122.5 -19q18 0 37.5 1
t48 5t39 16t13.5 23l3 27h176q0 -55 -9.5 -88.5t-45.5 -63t-110 -40.5q-45 -6 -66.5 -7.5t-57.5 -1.5v-35h73q32 0 45 -11q11 -13 11 -46v-98q0 -37 -11.5 -47.5t-54.5 -10.5h-137v72h84q19 0 25 5t6 25v15q0 17 -5 24q-5 3 -26 3h-81v104z" />
    <glyph glyph-name="egrave" unicode="&#xe8;" horiz-adv-x="753" 
d="M434 -10l-167 6q-119 0 -163 61t-44 190q0 117 46 172t160 55l164 3q79 0 125.5 -8t81 -36.5t46.5 -71.5t12 -99l-1 -27v-34h-458q0 -55 20 -77.5t74 -22.5l98 -2q11 0 24.5 0.5t32.5 3.5t26.5 12.5t10.5 37.5h172q0 -104 -67.5 -133.5t-192.5 -29.5zM352 373
q-53 0 -85 -11.5t-32 -57.5l1 -13h287q0 51 -25.5 66.5t-80.5 15.5h-65zM484 521l-238 67l39 110l224 -110z" />
    <glyph glyph-name="eacute" unicode="&#xe9;" horiz-adv-x="753" 
d="M434 -10l-167 6q-119 0 -163 61t-44 190q0 117 46 172t160 55l164 3q79 0 125.5 -8t81 -36.5t46.5 -71.5t12 -99l-1 -27v-34h-458q0 -55 20 -77.5t74 -22.5l98 -2q11 0 24.5 0.5t32.5 3.5t26.5 12.5t10.5 37.5h172q0 -104 -67.5 -133.5t-192.5 -29.5zM352 373
q-53 0 -85 -11.5t-32 -57.5l1 -13h287q0 51 -25.5 66.5t-80.5 15.5h-65zM271 521l-25 67l224 110l39 -110z" />
    <glyph glyph-name="ecircumflex" unicode="&#xea;" horiz-adv-x="753" 
d="M434 -10l-167 6q-119 0 -163 61t-44 190q0 117 46 172t160 55l164 3q79 0 125.5 -8t81 -36.5t46.5 -71.5t12 -99l-1 -27v-34h-458q0 -55 20 -77.5t74 -22.5l98 -2q11 0 24.5 0.5t32.5 3.5t26.5 12.5t10.5 37.5h172q0 -104 -67.5 -133.5t-192.5 -29.5zM352 373
q-53 0 -85 -11.5t-32 -57.5l1 -13h287q0 51 -25.5 66.5t-80.5 15.5h-65zM551 532l-176 63l-175 -63l-23 60l200 114l201 -114z" />
    <glyph glyph-name="edieresis" unicode="&#xeb;" horiz-adv-x="753" 
d="M434 -10l-167 6q-119 0 -163 61t-44 190q0 117 46 172t160 55l164 3q79 0 125.5 -8t81 -36.5t46.5 -71.5t12 -99l-1 -27v-34h-458q0 -55 20 -77.5t74 -22.5l98 -2q11 0 24.5 0.5t32.5 3.5t26.5 12.5t10.5 37.5h172q0 -104 -67.5 -133.5t-192.5 -29.5zM352 373
q-53 0 -85 -11.5t-32 -57.5l1 -13h287q0 51 -25.5 66.5t-80.5 15.5h-65zM201 534v101h139v-101h-139zM414 534v101h139v-101h-139z" />
    <glyph glyph-name="igrave" unicode="&#xec;" horiz-adv-x="320" 
d="M73 0v467h173v-467h-173zM266 521l-238 67l39 110l224 -110z" />
    <glyph glyph-name="iacute" unicode="&#xed;" horiz-adv-x="320" 
d="M73 0v467h173v-467h-173zM53 521l-25 67l224 110l39 -110z" />
    <glyph glyph-name="icircumflex" unicode="&#xee;" horiz-adv-x="320" 
d="M73 0v467h173v-467h-173zM333 531l-176 63l-175 -63l-23 60l200 114l201 -114z" />
    <glyph glyph-name="idieresis" unicode="&#xef;" horiz-adv-x="320" 
d="M73 0v467h173v-467h-173zM-17 533v101h139v-101h-139zM196 533v101h139v-101h-139z" />
    <glyph glyph-name="eth" unicode="&#xf0;" horiz-adv-x="807" 
d="M735 -20q0 -88 -56.5 -140t-143.5 -52l-76 -6l-84 -2q-136 0 -215 30t-79 141h176q0 -21 18 -33q10 -7 24 -10.5t34 -3.5l48 -3h21q51 0 89.5 6.5t51 25.5t15.5 37l3 39v90q-20 -45 -62 -70t-144 -25q-169 0 -231.5 41.5t-62.5 202.5q0 47 7 85.5t22 65.5q29 56 94 66
q47 6 70.5 8.5t51.5 2.5l79 1q79 0 114 -17q35 -15 62 -79v86h174v-458v-29zM397 132h15h12q44 0 66 4.5t39 15.5t23 31.5t6 45.5v23q0 52 -16 73t-67 21l-92 2h-30q-36 0 -58 -3.5t-35.5 -16t-19.5 -31.5l-4 -37v-17q0 -53 13.5 -76.5t59.5 -29.5l59 -5h29zM186 738h90
q15 -37 47 -60t71 -23t69 22t48 61h90q-12 -76 -70.5 -126t-136.5 -50t-134.5 49.5t-73.5 126.5z" />
    <glyph glyph-name="ntilde" unicode="&#xf1;" horiz-adv-x="781" 
d="M246 371q21 62 71.5 84t129.5 22q142 0 201.5 -46t59.5 -186v-245h-174v245q0 61 -25 79.5t-95 18.5h-20q-77 0 -112.5 -22t-35.5 -101v-11v-209h-173v467h173v-96zM471 526q-21 0 -77 21q-27 10 -47 16t-32 6q-21 0 -31 -10.5t-16 -33.5h-89q11 65 38.5 104.5t83.5 39.5
q28 0 81 -21q26 -10 45 -15t34 -5q22 0 36.5 11.5t14.5 31.5h90q-6 -60 -40.5 -102.5t-90.5 -42.5z" />
    <glyph glyph-name="ograve" unicode="&#xf2;" horiz-adv-x="789" 
d="M386 476l181 -7q93 -10 130 -57t37 -145v-20q0 -142 -31.5 -190t-174.5 -63l-190 -4q-151 0 -212 39t-61 181v28q0 89 15.5 139.5t70.5 71.5q28 11 60 17.5t66 6.5zM389 118h19h12q39 0 67.5 3t43 14.5t21.5 30.5t7 52v35q0 30 -6 46t-22.5 28.5t-53.5 16.5l-82 4
q-22 0 -41.5 -1t-36.5 -4q-32 -3 -51 -19t-23 -47l-3 -46q0 -33 4.5 -56t22.5 -38q16 -11 60 -16zM506 521l-238 67l39 110l224 -110z" />
    <glyph glyph-name="oacute" unicode="&#xf3;" horiz-adv-x="789" 
d="M386 476l181 -7q93 -10 130 -57t37 -145v-20q0 -142 -31.5 -190t-174.5 -63l-190 -4q-151 0 -212 39t-61 181v28q0 89 15.5 139.5t70.5 71.5q28 11 60 17.5t66 6.5zM389 118h19h12q39 0 67.5 3t43 14.5t21.5 30.5t7 52v35q0 30 -6 46t-22.5 28.5t-53.5 16.5l-82 4
q-22 0 -41.5 -1t-36.5 -4q-32 -3 -51 -19t-23 -47l-3 -46q0 -33 4.5 -56t22.5 -38q16 -11 60 -16zM293 521l-25 67l224 110l39 -110z" />
    <glyph glyph-name="ocircumflex" unicode="&#xf4;" horiz-adv-x="789" 
d="M386 476l181 -7q93 -10 130 -57t37 -145v-20q0 -142 -31.5 -190t-174.5 -63l-190 -4q-151 0 -212 39t-61 181v28q0 89 15.5 139.5t70.5 71.5q28 11 60 17.5t66 6.5zM389 118h19h12q39 0 67.5 3t43 14.5t21.5 30.5t7 52v35q0 30 -6 46t-22.5 28.5t-53.5 16.5l-82 4
q-22 0 -41.5 -1t-36.5 -4q-32 -3 -51 -19t-23 -47l-3 -46q0 -33 4.5 -56t22.5 -38q16 -11 60 -16zM573 531l-176 63l-175 -63l-23 60l200 114l201 -114z" />
    <glyph glyph-name="otilde" unicode="&#xf5;" horiz-adv-x="789" 
d="M386 476l181 -7q93 -10 130 -57t37 -145v-20q0 -142 -31.5 -190t-174.5 -63l-190 -4q-151 0 -212 39t-61 181v28q0 89 15.5 139.5t70.5 71.5q28 11 60 17.5t66 6.5zM389 118h19h12q39 0 67.5 3t43 14.5t21.5 30.5t7 52v35q0 30 -6 46t-22.5 28.5t-53.5 16.5l-82 4
q-22 0 -41.5 -1t-36.5 -4q-32 -3 -51 -19t-23 -47l-3 -46q0 -33 4.5 -56t22.5 -38q16 -11 60 -16zM480 526q-21 0 -77 21q-27 10 -47 16t-32 6q-21 0 -31 -10.5t-16 -33.5h-89q11 65 38.5 104.5t83.5 39.5q28 0 81 -21q26 -10 45 -15t34 -5q22 0 36.5 11.5t14.5 31.5h90
q-6 -60 -40.5 -102.5t-90.5 -42.5z" />
    <glyph glyph-name="odieresis" unicode="&#xf6;" horiz-adv-x="789" 
d="M386 476l181 -7q93 -10 130 -57t37 -145v-20q0 -142 -31.5 -190t-174.5 -63l-190 -4q-151 0 -212 39t-61 181v28q0 89 15.5 139.5t70.5 71.5q28 11 60 17.5t66 6.5zM389 118h19h12q39 0 67.5 3t43 14.5t21.5 30.5t7 52v35q0 30 -6 46t-22.5 28.5t-53.5 16.5l-82 4
q-22 0 -41.5 -1t-36.5 -4q-32 -3 -51 -19t-23 -47l-3 -46q0 -33 4.5 -56t22.5 -38q16 -11 60 -16zM223 533v101h139v-101h-139zM436 533v101h139v-101h-139z" />
    <glyph glyph-name="divide" unicode="&#xf7;" 
d="M496 324h-493v86h493v-86zM250 470q-26 0 -45 19t-19 45t19 45t45 19t45 -19t19 -45t-19 -45t-45 -19zM249 135q-26 0 -45 19t-19 45t19 45t45 19q27 0 46 -19t19 -45t-19 -45t-46 -19z" />
    <glyph glyph-name="oslash" unicode="&#xf8;" horiz-adv-x="789" 
d="M765 395l-48 -27q6 -22 9 -47l3 -58v-16q0 -144 -33.5 -198.5t-172.5 -54.5l-143 -4h-50q-81 0 -130 8t-84 35l-92 -52v94l47 26q-6 20 -9 44l-2 52v57q0 80 16 127t71 68q27 11 59 17.5t66 6.5l108 3l120 -3q31 0 47 -1.5t50 -7.5q46 -6 72 -29l96 54v-94zM260 322
q-16 -12 -21 -36l-4 -55l3 -44l265 150q-8 2 -25 4t-28 4l-60 3q-56 0 -84.5 -6t-45.5 -20zM393 118h12q46 0 84.5 6t51.5 31q4 7 8.5 23.5t4.5 40.5v17v18v15l-2 14l-274 -154q25 -6 53 -9z" />
    <glyph glyph-name="ugrave" unicode="&#xf9;" horiz-adv-x="787" 
d="M541 0v96q-15 -62 -73.5 -84t-139.5 -22q-129 0 -191.5 45t-62.5 172v260h173v-244q0 -65 33 -86q33 -18 107 -18q82 0 118 27t36 102v14v205h173v-467h-173zM501 521l-238 67l39 110l224 -110z" />
    <glyph glyph-name="uacute" unicode="&#xfa;" horiz-adv-x="787" 
d="M541 0v96q-15 -62 -73.5 -84t-139.5 -22q-129 0 -191.5 45t-62.5 172v260h173v-244q0 -65 33 -86q33 -18 107 -18q82 0 118 27t36 102v14v205h173v-467h-173zM288 521l-25 67l224 110l39 -110z" />
    <glyph glyph-name="ucircumflex" unicode="&#xfb;" horiz-adv-x="787" 
d="M541 0v96q-15 -62 -73.5 -84t-139.5 -22q-129 0 -191.5 45t-62.5 172v260h173v-244q0 -65 33 -86q33 -18 107 -18q82 0 118 27t36 102v14v205h173v-467h-173zM568 531l-176 63l-175 -63l-23 60l200 114l201 -114z" />
    <glyph glyph-name="udieresis" unicode="&#xfc;" horiz-adv-x="787" 
d="M541 0v96q-15 -62 -73.5 -84t-139.5 -22q-129 0 -191.5 45t-62.5 172v260h173v-244q0 -65 33 -86q33 -18 107 -18q82 0 118 27t36 102v14v205h173v-467h-173zM218 533v101h139v-101h-139zM431 533v101h139v-101h-139z" />
    <glyph glyph-name="yacute" unicode="&#xfd;" horiz-adv-x="320" 
d="M73 0v467h173v-467h-173z" />
    <glyph glyph-name="thorn" unicode="&#xfe;" horiz-adv-x="771" 
d="M357 -10h-40q-63 0 -109 6t-82 20q-66 26 -66 128h181q0 -32 21 -38t27.5 -7t15.5 -1l42 -1l82 -1h19h16q10 2 14 2q12 0 18.5 1.5t23.5 8.5t17 35q0 21 -18 28t-43 7h-130l-148 4q-135 12 -135 142q0 81 48 110t142 38l169 4h47t40 -2q30 0 79.5 -9t74.5 -39t25 -86
h-182q-3 20 -27 26l-29 5l-36 1h-75l-32 -1l-32 -3q-15 -1 -27 -12q-8 -8 -10 -25q0 -19 15.5 -25.5t42.5 -6.5l191 -1q113 0 168.5 -22t55.5 -116q0 -59 -15.5 -92t-60.5 -50t-110 -23l-97 -4v-36h73q32 0 45 -11q11 -13 11 -46v-98q0 -37 -11.5 -47.5t-54.5 -10.5h-137v72
h84q19 0 25 5t6 25v15q0 17 -5 24q-5 3 -26 3h-81v104z" />
    <glyph glyph-name="ydieresis" unicode="&#xff;" horiz-adv-x="742" 
d="M242 -212l-65 4v118l38 -1q48 0 66 18t41 73h-71l-214 467h192l137 -344l151 344h192l-274 -583q-30 -63 -70.5 -79.5t-122.5 -16.5zM195 534v101h139v-101h-139zM408 534v101h139v-101h-139z" />
    <glyph glyph-name="c274" unicode="&#x112;" 
d="M331 526q-21 0 -77 21q-27 10 -47 16t-32 6q-21 0 -31 -10.5t-16 -33.5h-89q11 65 38.5 104.5t83.5 39.5q28 0 81 -21q26 -10 45 -15t34 -5q22 0 36.5 11.5t14.5 31.5h90q-6 -60 -40.5 -102.5t-90.5 -42.5z" />
    <glyph glyph-name="c275" unicode="&#x113;" horiz-adv-x="777" 
d="M452 478l-162 -93v-218h461v-167h-664v283l-87 -51v123l87 50v262h203v-159l162 94v-124z" />
    <glyph glyph-name="c276" unicode="&#x114;" horiz-adv-x="387" 
d="M107 0v284l-73 -42v94l73 42v289h174v-207l73 41v-94l-73 -42v-365h-174z" />
    <glyph glyph-name="c277" unicode="&#x115;" horiz-adv-x="925" 
d="M868 151v-151h-811v151l503 364h-490v152h788v-152l-507 -364h517zM290 898l176 -63l175 63l23 -60l-200 -114l-201 114z" />
    <glyph glyph-name="c278" unicode="&#x116;" horiz-adv-x="680" 
d="M318 117h308v-117h-573v120l309 231h-289v116h543v-130zM166 705l176 -63l175 63l23 -60l-200 -114l-201 114z" />
    <glyph glyph-name="c279" unicode="&#x117;" 
d="M496 324h-493v86h493v-86z" />
    <glyph glyph-name="Gbreve" unicode="&#x11e;" horiz-adv-x="1017" 
d="M944 376l1 -140q0 -124 -42.5 -183t-165.5 -59l-106 -1l-121 1l-105 1q-114 0 -181 15t-107.5 68.5t-40.5 162.5l-2 84q0 195 48 270t226 75l152 3l56 1l136 -3q132 0 191.5 -45.5t59.5 -175.5v-12h-199q0 24 -6.5 41t-23 22.5t-40.5 9.5l-50 2l-235 1q-72 0 -91 -35.5
t-19 -117.5v-62q0 -69 18 -102t55 -39l54 -5l48 -1l181 -1q52 0 81 17t29 64l-1 19h-257v125h457zM310 922h90q15 -37 47 -60t71 -23t69 22t48 61h90q-12 -76 -70.5 -126t-136.5 -50t-134.5 49.5t-73.5 126.5z" />
    <glyph glyph-name="gbreve" unicode="&#x11f;" horiz-adv-x="807" 
d="M735 -20q0 -88 -56.5 -140t-143.5 -52l-76 -6l-84 -2q-136 0 -215 30t-79 141h176q0 -21 18 -33q10 -7 24 -10.5t34 -3.5l48 -3h21q51 0 89.5 6.5t51 25.5t15.5 37l3 39v90q-20 -45 -62 -70t-144 -25q-169 0 -231.5 41.5t-62.5 202.5q0 47 7 85.5t22 65.5q29 56 94 66
q47 6 70.5 8.5t51.5 2.5l79 1q79 0 114 -17q35 -15 62 -79v86h174v-458v-29zM397 132h15h12q44 0 66 4.5t39 15.5t23 31.5t6 45.5v23q0 52 -16 73t-67 21l-92 2h-30q-36 0 -58 -3.5t-35.5 -16t-19.5 -31.5l-4 -37v-17q0 -53 13.5 -76.5t59.5 -29.5l59 -5h29zM186 738h90
q15 -37 47 -60t71 -23t69 22t48 61h90q-12 -76 -70.5 -126t-136.5 -50t-134.5 49.5t-73.5 126.5z" />
    <glyph glyph-name="Idotaccent" unicode="&#x130;" horiz-adv-x="377" 
d="M87 0v667h203v-667h-203zM90 740v144h199v-144h-199z" />
    <glyph glyph-name="dotlessi" unicode="&#x131;" horiz-adv-x="320" 
d="M73 0v467h173v-467h-173z" />
    <glyph glyph-name="OE" unicode="&#x152;" horiz-adv-x="1565" 
d="M1469 401v-132h-506v-118h539v-151h-728v74q-27 -45 -72 -63q-23 -8 -48 -12t-58 -4l-148 -2h-21q-67 0 -158 9t-141.5 60.5t-50.5 160.5l-2 64l-2 49q0 184 52 260t225 76l172 1h49h36q21 -3 31 -4q38 0 75 -20q31 -15 61 -58v75h728v-151h-539v-114h506zM366 163
l144 -7l99 1q111 0 137.5 30.5t26.5 143.5v12l-1 46q0 19 -6 45q-3 24 -15 39t-29 19.5t-26 6.5t-20 2l-43 1l-115 2l-137 -2q-66 -6 -84.5 -33.5t-18.5 -105.5v-28v-20q0 -70 15 -106.5t73 -45.5z" />
    <glyph glyph-name="oe" unicode="&#x153;" horiz-adv-x="1238" 
d="M815 99l89 -3h18h14q10 2 14 2q24 3 41.5 11.5t17.5 37.5h171q0 -72 -52 -114.5t-191 -42.5l-169 4q-52 5 -81 18.5t-51 53.5q-25 -41 -66 -59q-21 -8 -43.5 -12t-53.5 -4l-140 -1q-52 0 -88 4t-73 15q-62 19 -83 65q-16 41 -23 79l-3 70q0 126 30.5 180.5t108.5 63.5
l113 9l85 1h24l79 -3q30 0 72 -13q39 -10 61 -55q24 42 72 57t112 15l58 -1q111 0 171 -11.5t96 -57.5t36 -148l-1 -58h-458q0 -58 19.5 -80.5t73.5 -22.5zM900 374h-33l-45 -1q-18 0 -26.5 -1t-32.5 -7q-36 -6 -44 -60l-1 -13h291q0 25 -5 39q-3 15 -16 24.5t-38 14.5z
M403 119q90 0 122.5 18t32.5 97q0 72 -26 95q-24 24 -103 24h-62h-31t-35 -4q-26 -3 -42 -16t-22 -35l-4 -48v-7q0 -82 32 -104q32 -20 120 -20h18z" />
    <glyph glyph-name="Scedilla" unicode="&#x15e;" horiz-adv-x="983" 
d="M461 -5l-37 -1l-136 3q-109 0 -159.5 35t-50.5 141v40h200l1 -11q0 -40 27 -52q30 -10 77 -10l96 -1l136 4q56 0 73 14t17 44q0 27 -19.5 43t-74.5 16h-33l-334 7q-93 0 -133 47q-38 49 -38 146q0 82 24 127.5t89 63.5q35 9 77.5 14.5t91.5 5.5l141 3l142 -2
q44 0 76.5 -3t60.5 -11q51 -12 72.5 -48t28 -65.5t6.5 -80.5h-199q0 34 -20.5 48.5t-57.5 14.5l-98 1l-155 -5q-29 0 -51.5 -11.5t-22.5 -38.5q0 -36 25 -49q12 -5 29.5 -8t40.5 -3h21l136 -2l134 -1q130 0 187 -41q59 -39 59 -162q0 -118 -52.5 -162t-173.5 -44l-152 -4
v-42h73q32 0 45 -11q11 -13 11 -46v-98q0 -37 -11.5 -47.5t-54.5 -10.5h-137v72h84q19 0 25 5t6 25v15q0 17 -5 24q-5 3 -26 3h-81v109z" />
    <glyph glyph-name="scedilla" unicode="&#x15f;" horiz-adv-x="771" 
d="M357 -10h-40q-63 0 -109 6t-82 20q-66 26 -66 128h181q0 -32 21 -38t27.5 -7t15.5 -1l42 -1l82 -1h19h16q10 2 14 2q12 0 18.5 1.5t23.5 8.5t17 35q0 21 -18 28t-43 7h-130l-148 4q-135 12 -135 142q0 81 48 110t142 38l169 4h47t40 -2q30 0 79.5 -9t74.5 -39t25 -86
h-182q-3 20 -27 26l-29 5l-36 1h-75l-32 -1l-32 -3q-15 -1 -27 -12q-8 -8 -10 -25q0 -19 15.5 -25.5t42.5 -6.5l191 -1q113 0 168.5 -22t55.5 -116q0 -59 -15.5 -92t-60.5 -50t-110 -23l-97 -4v-36h73q32 0 45 -11q11 -13 11 -46v-98q0 -37 -11.5 -47.5t-54.5 -10.5h-137v72
h84q19 0 25 5t6 25v15q0 17 -5 24q-5 3 -26 3h-81v104z" />
    <glyph glyph-name="Scaron" unicode="&#x160;" horiz-adv-x="983" 
d="M279 202q0 -40 27 -52q30 -10 77 -10l96 -1l136 4q56 0 73 14t17 44q0 27 -19.5 43t-74.5 16h-33l-334 7q-93 0 -133 47q-38 49 -38 146q0 82 24 127.5t89 63.5q35 9 77.5 14.5t91.5 5.5l141 3l142 -2q44 0 76.5 -3t60.5 -11q51 -12 72.5 -48t28 -65.5t6.5 -80.5h-199
q0 34 -20.5 48.5t-57.5 14.5l-98 1l-155 -5q-29 0 -51.5 -11.5t-22.5 -38.5q0 -36 25 -49q12 -5 29.5 -8t40.5 -3h21l136 -2l134 -1q130 0 187 -41q59 -39 59 -162q0 -118 -52.5 -162t-173.5 -44l-260 -7l-136 3q-109 0 -159.5 35t-50.5 141v40h200zM318 898l176 -63l175 63
l23 -60l-200 -114l-201 114z" />
    <glyph glyph-name="scaron" unicode="&#x161;" horiz-adv-x="771" 
d="M479 366l-29 5l-36 1h-75l-32 -1l-32 -3q-15 -1 -27 -12q-8 -8 -10 -25q0 -19 15.5 -25.5t42.5 -6.5l191 -1q113 0 168.5 -22t55.5 -116q0 -59 -15.5 -92t-60.5 -50t-110 -23q-25 0 -73.5 -2.5t-61.5 -2.5h-73q-63 0 -109 6t-82 20q-66 26 -66 128h181q0 -32 21 -38
t27.5 -7t15.5 -1l42 -1l82 -1h19h16q10 2 14 2q12 0 18.5 1.5t23.5 8.5t17 35q0 21 -18 28t-43 7h-130l-148 4q-135 12 -135 142q0 81 48 110t142 38l169 4h47t40 -2q30 0 79.5 -9t74.5 -39t25 -86h-182q-3 20 -27 26zM212 705l176 -63l175 63l23 -60l-200 -114l-201 114z
" />
    <glyph glyph-name="Ydieresis" unicode="&#x178;" horiz-adv-x="1000" 
d="M980 667l-375 -435v-232h-204v232l-381 435h256l226 -275l224 275h254zM324 729v101h139v-101h-139zM537 729v101h139v-101h-139z" />
    <glyph glyph-name="florin" unicode="&#x192;" horiz-adv-x="953" 
d="M260 -137l-110 4l20 113l67 -1q63 0 82.5 18t31.5 82l52 295h-111l19 110h112l14 91q9 53 35 93q24 42 84.5 55t137.5 13l110 -4l-20 -113l-67 1q-53 0 -77 -13.5t-33 -60.5l-11 -62h164l-19 -110h-164l-56 -318q-21 -120 -75.5 -156.5t-185.5 -36.5z" />
    <glyph glyph-name="circumflex" unicode="&#x2c6;" 
d="M424 532l-176 63l-175 -63l-23 60l200 114l201 -114z" />
    <glyph glyph-name="caron" unicode="&#x2c7;" 
d="M77 706l176 -63l175 63l23 -60l-200 -114l-201 114z" />
    <glyph glyph-name="breve" unicode="&#x2d8;" 
d="M42 706h90q15 -37 47 -60t71 -23t69 22t48 61h90q-12 -76 -70.5 -126t-136.5 -50t-134.5 49.5t-73.5 126.5z" />
    <glyph glyph-name="dotaccent" unicode="&#x2d9;" 
d="M180 533v101h139v-101h-139z" />
    <glyph glyph-name="ring" unicode="&#x2da;" 
d="M388 612q0 -44 -42 -61.5t-95 -17.5q-54 0 -97 15.5t-43 62.5q0 41 45 57.5t93 16.5q54 0 96.5 -15t42.5 -58zM251 577q33 0 56.5 6t23.5 26q0 24 -29 28l-45 5h-8q-30 0 -55.5 -6.5t-25.5 -28.5q0 -18 21 -24t49 -6h13z" />
    <glyph glyph-name="ogonek" unicode="&#x2db;" 
d="M450 -82q0 -19 18.5 -30t38.5 -11q17 0 32 5v-63l-32 -7l-33 -3q-43 0 -75.5 24.5t-32.5 64.5q0 29 16.5 54t45.5 48h76q-24 -18 -40 -37q-14 -19 -14 -45z" />
    <glyph glyph-name="tilde" unicode="&#x2dc;" horiz-adv-x="667" 
d="M250 763q32 0 94.5 -26t84.5 -26q17 0 32 15q5 6 13 17t14 23l90 -76q-34 -87 -71 -118t-85 -31q-27 0 -90.5 25.5t-90.5 25.5q-18 0 -33 -16l-26 -39l-90 76q33 87 73 118.5t85 31.5z" />
    <glyph glyph-name="endash" unicode="&#x2013;" horiz-adv-x="953" 
d="M157 156v170h638v-170h-638z" />
    <glyph glyph-name="emdash" unicode="&#x2014;" horiz-adv-x="1038" 
d="M20 156v170h998v-170h-998z" />
    <glyph glyph-name="quoteleft" unicode="&#x2018;" horiz-adv-x="318" 
d="M228 668h27l29 -3v-105l-21 2q-34 0 -48.5 -19t-14.5 -54h56v-185h-201v185q0 99 37.5 139t135.5 40z" />
    <glyph glyph-name="quoteright" unicode="&#x2019;" horiz-adv-x="322" 
d="M93 303h-15l-44 3v104l21 -2q34 0 48.5 18.5t14.5 54.5h-56v186h201v-186q0 -95 -36 -136.5t-134 -41.5z" />
    <glyph glyph-name="quotesinglbase" unicode="&#x201a;" horiz-adv-x="322" 
d="M93 -178h-15l-44 3v104l21 -2q34 0 48.5 19t14.5 54h-56v186h201v-186q0 -96 -36.5 -137t-133.5 -41z" />
    <glyph glyph-name="quotedblleft" unicode="&#x201c;" horiz-adv-x="588" 
d="M498 668h27l29 -3v-105l-21 2q-34 0 -48.5 -19t-14.5 -54h56v-185h-201v185q0 99 37.5 139t135.5 40zM228 668h27l29 -3v-105l-21 2q-34 0 -48.5 -19t-14.5 -54h56v-185h-201v185q0 99 37.5 139t135.5 40z" />
    <glyph glyph-name="quotedblright" unicode="&#x201d;" horiz-adv-x="592" 
d="M93 303h-15l-44 3v104l21 -2q34 0 48.5 18.5t14.5 54.5h-56v186h201v-186q0 -95 -36 -136.5t-134 -41.5zM363 303h-15l-44 3v104l21 -2q34 0 48.5 18.5t14.5 54.5h-56v186h201v-186q0 -53 -7 -85t-25 -54q-30 -39 -138 -39z" />
    <glyph glyph-name="quotedblbase" unicode="&#x201e;" horiz-adv-x="592" 
d="M93 -178h-15l-44 3v104l21 -2q34 0 48.5 19t14.5 54h-56v186h201v-186q0 -96 -36.5 -137t-133.5 -41zM363 -178h-15l-44 3v104l21 -2q34 0 48.5 19t14.5 54h-56v186h201v-186q0 -97 -35.5 -137.5t-134.5 -40.5z" />
    <glyph glyph-name="dagger" unicode="&#x2020;" horiz-adv-x="953" 
d="M858 470v-128h-291v-558h-181v558h-291v128h291v197h181v-197h291z" />
    <glyph glyph-name="daggerdbl" unicode="&#x2021;" horiz-adv-x="953" 
d="M858 470v-128h-291v-223h291v-128h-291v-207h-181v207h-291v128h291v223h-291v128h291v197h181v-197h291z" />
    <glyph glyph-name="bullet" unicode="&#x2022;" horiz-adv-x="600" 
d="M392 286q0 -39 -28 -67.5t-70 -28.5q-39 0 -67.5 28t-28.5 68q0 39 28 67.5t68 28.5t69 -27.5t29 -68.5z" />
    <glyph glyph-name="ellipsis" unicode="&#x2026;" horiz-adv-x="996" 
d="M66 0v186h199v-186h-199zM398 0v186h199v-186h-199zM730 0v186h199v-186h-199z" />
    <glyph glyph-name="perthousand" unicode="&#x2030;" horiz-adv-x="1573" 
d="M304 669q99 0 133 -29t34 -127v-30q0 -90 -26 -120.5t-137 -30.5l-113 -1q-87 0 -121 28q-32 29 -32 115v27q0 100 26.5 133t123.5 33zM258 417q74 0 91 11t17 72q0 52 -14 69q-12 18 -62 18l-65 -1q-29 0 -38 -2q-12 0 -21 -8q-9 -6 -15 -21l-4 -43v-12q0 -51 11 -67
t59 -16h41zM316 0h-92l555 667h92zM886 336q99 0 133 -31t34 -125v-34q0 -49 -8 -80.5t-29 -44t-48 -17.5t-50 -5.5t-36 -0.5l-99 -1q-85 0 -122 24t-37 120v27q0 100 26.5 133t123.5 33zM840 83l46 2q42 0 52 16.5t10 60.5v29q0 19 -3.5 31.5t-14.5 19t-24 9.5t-34 3
l-65 -1q-29 0 -38 -2q-12 0 -21 -8q-9 -6 -15 -21l-4 -43v-12q0 -52 10.5 -67.5t60.5 -15.5zM1373 336q99 0 133 -31t34 -125v-34q0 -49 -8 -80.5t-29 -44t-48 -17.5t-50 -5.5t-36 -0.5l-99 -1h-12q-21 0 -37 1t-27 4q-25 6 -46 18.5t-30 43.5q-3 15 -5 34t-2 43v27
q0 100 26.5 133t123.5 33zM1327 83l46 2q42 0 52 16.5t10 60.5v28q0 19 -3.5 31.5t-15 19.5t-24.5 10t-33 3l-65 -1q-29 0 -38 -2q-12 0 -21 -8q-9 -6 -15 -21l-4 -43v-12q0 -52 10.5 -67.5t60.5 -15.5z" />
    <glyph glyph-name="guilsinglleft" unicode="&#x2039;" horiz-adv-x="361" 
d="M300 70l-123 -68l-144 241l144 247l124 -70l-104 -177z" />
    <glyph glyph-name="guilsinglright" unicode="&#x203a;" horiz-adv-x="361" 
d="M328 243l-145 -241l-123 68l104 173l-104 177l123 70z" />
    <glyph glyph-name="trademark" unicode="&#x2122;" horiz-adv-x="1371" 
d="M206 267v295h-185v105h503v-105h-184v-295h-134zM1186 267v289l-176 -289h-106l-174 289v-289h-127v400h207l149 -256l148 256h205v-400h-126z" />
    <glyph glyph-name="fraction" unicode="&#x2215;" horiz-adv-x="225" 
d="M-114 0h-101l555 667h100z" />
    <glyph glyph-name="fi" unicode="&#xf001;" horiz-adv-x="837" 
d="M312 352v-352h-174v352h-91v115h91q0 126 49.5 171t177.5 45l63 -3l48 -2v-113l-68 2q-35 0 -50 -4.5t-26 -14.5t-17 -24l-4 -45l1 -12h175v-115h-175zM590 541v126h174v-126h-174zM590 0v467h174v-467h-174z" />
    <glyph glyph-name="fl" unicode="&#xf002;" horiz-adv-x="837" 
d="M312 352v-352h-174v352h-91v115h91q0 126 49.5 171t177.5 45l63 -3l48 -2v-113l-68 2q-35 0 -50 -4.5t-26 -14.5t-17 -24l-4 -45l1 -12h175v-115h-175zM590 0v667h174v-667h-174z" />
  </font>
</defs>
</svg>
